<svg width="428" height="574" viewBox="0 0 428 574" fill="none" xmlns="http://www.w3.org/2000/svg">
<mask id="mask0" mask-type="alpha" maskUnits="userSpaceOnUse" x="0" y="0" width="428" height="574">
<rect width="428" height="574" fill="#1B8679"/>
</mask>
<g mask="url(#mask0)">
<path d="M433.156 -27.4043C427.962 6.00479 423.013 37.589 438.279 70.4015C451.79 99.4239 468.635 115.005 494.604 122.445C532.225 133.219 576.653 143.993 621.257 142.238C655.508 140.904 687.83 139.641 721.204 154.24C732.749 159.294 744.786 164.172 756.402 168.909C777.95 177.683 800.269 186.772 820.869 197.335C841.329 207.863 867.649 227.235 876.844 259.696C879.651 269.628 879.581 279.7 879.546 289.42C879.511 296.895 879.476 304.651 880.704 312.372C882.81 325.391 888.705 335.007 894.952 345.184C897.409 349.22 899.97 353.361 902.322 357.818C915.306 382.348 917.482 404.492 908.814 423.653C892.25 460.256 839.89 477.662 810.166 484.786C787.811 490.121 768.58 487.84 748.191 485.418C736.294 483.979 724.011 482.54 710.816 482.646C695.305 482.786 683.022 485.207 670.002 487.769C650.56 491.595 630.487 495.595 596.972 492.577C577.004 490.787 555.527 491.91 538.015 495.665C515.836 500.438 500.114 509.282 492.534 521.319C483.831 535.146 485.48 553.008 497.412 574.486H499.026C487.024 553.184 485.234 535.567 493.727 522.091C511.309 494.191 566.827 491.314 596.832 493.981C630.557 496.999 650.736 493.033 670.283 489.173C683.232 486.611 695.48 484.19 710.851 484.049C723.941 483.944 736.189 485.383 748.05 486.822C768.545 489.278 787.917 491.595 810.517 486.19C833.854 480.61 853.998 473.065 870.316 463.8C889.898 452.676 903.304 439.375 910.147 424.25C918.991 404.668 916.815 382.103 903.62 357.186C901.234 352.694 898.672 348.518 896.215 344.482C890.039 334.445 884.213 324.935 882.178 312.196C880.949 304.581 880.985 296.895 881.02 289.456C881.055 279.629 881.125 269.452 878.283 259.345C868.983 226.357 842.312 206.74 821.606 196.107C800.971 185.508 778.652 176.419 757.034 167.611C745.418 162.873 733.381 157.995 721.87 152.942C688.181 138.202 655.684 139.466 621.292 140.834C618.099 140.975 614.905 141.01 611.712 141.01C570.547 141.01 529.873 131.043 495.096 121.077C469.548 113.777 452.983 98.4412 439.648 69.8049C424.558 37.3784 429.471 6.00479 434.63 -27.1937C435.823 -34.7739 437.016 -42.5647 437.999 -50.3906C438.279 -52.6717 438.525 -54.9176 438.735 -57.1987H437.332C437.121 -54.9878 436.911 -52.7418 436.63 -50.531C435.542 -42.7753 434.349 -34.9845 433.156 -27.4043Z" fill="#1B8679"/>
<path d="M418.171 -2.52361C415.68 32.1839 422.312 64.8911 437.367 92.0887C446 107.67 454.318 117.602 464.39 124.375C473.619 130.551 484.849 134.587 503.098 138.237C506.011 138.833 508.958 139.43 511.941 140.026C542.227 146.168 576.338 153.081 607.887 153.081C609.887 153.081 611.888 153.046 613.888 153.011C657.369 151.748 688.743 154.59 730.048 173.295C735.066 175.576 740.225 177.822 745.173 180.033C800.937 204.669 853.577 227.936 855.542 296.123C855.613 298.614 855.648 301.106 855.683 303.563C855.858 315.81 856.034 327.356 860.42 339.147C862.877 345.78 866.632 351.992 870.247 357.993C874.879 365.678 879.687 373.609 881.757 382.418C889.618 415.932 863.579 443.095 836.557 457.343C805.99 473.486 774.266 472.573 740.716 471.626C739.277 471.591 737.839 471.555 736.365 471.52C716.782 470.994 698.043 474.574 679.864 478.048C665.125 480.855 649.894 483.768 634.313 484.47C620.17 485.102 605.501 484.119 591.323 483.171C564.652 481.382 537.103 479.557 511.134 488.014C490.71 494.647 478.181 506.579 472.812 524.441C466.741 544.69 470.671 560.447 478.918 574.625H480.568C472.215 560.518 468.144 544.901 474.181 524.828C479.41 507.421 491.657 495.84 511.59 489.348C537.279 480.961 564.722 482.821 591.253 484.575C605.466 485.523 620.17 486.505 634.383 485.909C650.07 485.242 665.335 482.294 680.145 479.487C698.218 476.047 716.923 472.468 736.33 472.994C737.768 473.029 739.242 473.064 740.681 473.1C774.441 474.047 806.306 474.96 837.224 458.676C852.349 450.675 865.263 439.69 873.546 427.653C883.442 413.3 886.741 397.578 883.126 382.172C881.02 373.153 876.142 365.117 871.44 357.361C867.86 351.43 864.14 345.254 861.719 338.761C857.402 327.181 857.262 315.74 857.086 303.633C857.051 301.211 857.016 298.685 856.946 296.193C856.455 279.594 853.051 265.17 846.453 252.15C840.593 240.499 832.31 230.217 821.186 220.707C800.516 203.09 772.687 190.772 745.77 178.875C740.822 176.664 735.663 174.418 730.644 172.137C689.094 153.327 657.545 150.484 613.853 151.748C580.795 152.695 544.368 145.326 512.222 138.833C509.239 138.237 506.291 137.64 503.378 137.044C471.935 130.727 456.002 123.041 438.596 91.5974C423.681 64.6455 417.118 32.219 419.575 -2.24286C420.101 -9.71779 420.733 -17.1225 421.33 -24.2816C422.242 -35.3361 423.155 -46.18 423.751 -57.0239H422.347C421.751 -46.2151 420.838 -35.4063 419.926 -24.3869C419.329 -17.4384 418.733 -10.0336 418.171 -2.52361Z" fill="#1B8679"/>
<path d="M421.364 81.5603C428.348 106.091 438.525 130.481 465.723 142.728C504.08 159.994 547.28 159.959 589.041 159.889C616.625 159.854 645.156 159.819 671.476 164.908C701.727 170.768 736.189 183.823 763.702 199.896C787.811 213.968 818.729 237.411 829.187 269.065C834.38 284.822 835.925 301.843 837.399 318.337C838.697 332.83 840.066 347.815 843.891 362.063C854.103 400.105 842.592 429.478 811.464 444.779C790.443 455.131 766.159 456.851 742.716 458.5C737.312 458.886 731.697 459.272 726.292 459.764C711.307 461.132 696.673 464.256 682.531 467.274C672.88 469.344 662.878 471.485 652.842 473.029C632.242 476.258 609.501 475.17 587.497 474.117C551.842 472.433 514.959 470.713 483.69 486.365C472.215 492.12 463.512 501.104 457.862 513.036C452.808 523.739 450.457 536.513 451.053 550.06C451.475 559.605 453.65 567.536 456.984 574.45H458.563C455.124 567.536 452.878 559.605 452.457 549.989C451.159 521.142 462.775 498.402 484.287 487.628C515.204 472.152 551.912 473.871 587.392 475.521C609.466 476.574 632.277 477.626 653.017 474.398C663.089 472.819 673.091 470.678 682.776 468.607C696.884 465.589 711.448 462.466 726.363 461.097C731.732 460.606 737.347 460.22 742.751 459.834C766.369 458.149 790.759 456.43 812.026 445.972C828.555 437.865 839.68 425.934 845.084 410.527C850.067 396.385 850.102 379.961 845.154 361.642C841.364 347.534 840.031 332.585 838.732 318.161C837.258 301.597 835.714 284.506 830.45 268.574C819.852 236.498 788.654 212.845 764.334 198.632C736.715 182.489 702.078 169.364 671.652 163.469C645.191 158.345 616.625 158.38 588.971 158.415C547.35 158.485 504.326 158.521 466.249 141.36C439.578 129.358 429.541 105.284 422.663 81.069C411.468 41.6589 408.66 -3.19064 414.556 -48.5666C414.942 -51.4794 415.188 -54.3922 415.363 -57.3049H413.96C413.819 -54.4273 413.538 -51.5847 413.187 -48.7421C407.327 -3.05027 410.134 41.9748 421.364 81.5603Z" fill="#1B8679"/>
<path d="M402.835 -20.3163C401.432 -4.5593 399.993 11.7241 401.958 27.7619C406.345 63.803 416.697 98.3351 430.349 122.444C438.35 136.622 448.246 146.378 461.371 153.116C474.216 159.714 489.376 162.837 503.835 165.223C545.245 172.102 580.83 175.155 619.082 175.155C619.468 175.155 619.819 175.155 620.205 175.155C689.76 175.155 752.964 200.492 793.673 244.71C815.045 267.907 818.414 296.508 820.168 326.233C820.449 331.181 820.94 336.234 821.432 341.569C823.783 367.257 826.45 396.42 809.324 416.634C784.197 446.253 739.839 450.604 696.884 454.816C679.408 456.535 661.37 458.29 645.227 461.799C626.592 465.835 606.483 465.659 585.146 465.449C551.843 465.133 514.082 464.782 475.444 481.557C450.492 492.401 440.28 511.632 428.454 533.881C427.927 534.864 427.401 535.882 426.874 536.864C425.681 539.11 423.014 542.62 419.926 546.655C413.504 555.078 406.239 564.623 406.625 569.887C406.731 571.431 407.327 572.94 408.24 574.414H409.959C408.836 572.905 408.134 571.361 408.029 569.782C407.678 565.044 415.083 555.323 421.049 547.498C424.172 543.392 426.874 539.882 428.103 537.496C428.629 536.478 429.156 535.496 429.682 534.513C441.368 512.474 451.475 493.454 475.97 482.82C514.328 466.151 551.913 466.502 585.111 466.818C606.518 467.028 626.697 467.204 645.472 463.133C661.51 459.658 679.548 457.904 696.955 456.184C740.155 451.938 784.829 447.586 810.307 417.511C827.819 396.841 825.116 367.397 822.765 341.428C822.274 336.094 821.818 331.041 821.537 326.127C820.659 311.774 819.326 296.508 815.431 282.296C811.219 266.96 804.411 254.361 794.655 243.728C773.353 220.601 746.437 202.738 714.572 190.596C685.549 179.542 652.912 173.716 620.135 173.716C620.03 173.716 619.924 173.716 619.819 173.716C581.321 173.751 545.596 170.698 504.01 163.785C474.602 158.907 448.878 152.379 431.507 121.672C417.961 97.7034 407.678 63.3819 403.292 27.5162C401.361 11.6188 402.8 -4.59439 404.169 -20.2812C405.257 -32.4587 406.345 -44.9169 405.853 -57.3049H404.45C405.011 -44.8818 403.888 -32.4587 402.835 -20.3163Z" fill="#1B8679"/>
<path d="M389.64 -17.4737C387.289 16.8479 388.377 43.0978 400.765 75.6998C402.414 80.0865 404.029 84.5785 405.748 89.3512C415.364 116.408 426.278 147.08 452.037 161.609C476.672 175.471 506.818 178.068 533.383 180.314C540.718 180.945 547.667 181.542 554.229 182.314C570.021 184.244 586.094 184.349 601.64 184.49C622.275 184.665 643.612 184.841 664.353 189.192C718.678 200.598 784.794 238.744 792.409 308.651C800.235 380.347 777.565 418.845 716.677 437.339C656.316 455.658 612.8 460.431 544.262 456.254C517.662 454.64 494.781 457.869 474.321 466.116C452.528 474.924 432.735 489.628 413.89 511.106C408.275 517.493 401.151 523.213 393.606 529.319C377.954 541.918 361.776 554.938 359.354 574.309C359.354 574.344 359.354 574.379 359.354 574.379H360.758C363.145 555.604 379.077 542.795 394.483 530.372C402.098 524.266 409.293 518.475 414.943 512.018C450.843 471.169 490.71 454.394 544.192 457.658C612.941 461.834 656.562 457.062 717.098 438.673C749.279 428.917 770.827 413.265 783.004 390.84C788.794 380.137 792.479 368.064 794.199 353.887C795.813 340.586 795.708 325.741 793.813 308.511C790.479 278.049 775.178 250.325 749.525 228.357C726.925 208.985 696.779 194.597 664.633 187.824C643.718 183.437 622.311 183.262 601.64 183.086C586.129 182.946 570.091 182.84 554.369 180.91C547.772 180.103 540.823 179.507 533.454 178.875C506.993 176.629 477.023 174.067 452.668 160.345C427.366 146.097 416.557 115.671 407.012 88.8599C405.292 84.0871 403.713 79.5601 402.028 75.1734C389.71 42.782 388.658 16.7075 390.974 -17.4035C391.956 -31.7918 390.693 -44.8116 388.272 -57.2698H386.833C389.36 -44.7765 390.623 -31.8269 389.64 -17.4737Z" fill="#1B8679"/>
<path d="M384.586 73.3843C387.569 80.1924 390.341 87.2462 393.289 94.7563C399.36 110.233 405.642 126.27 414.1 140.273C423.715 156.17 434.875 167.084 448.14 173.576C492.92 195.51 546.964 199.019 594.656 202.107C599.113 202.388 603.535 202.669 607.921 202.985C678.144 207.793 733.767 233.06 756.718 270.61C773.107 297.387 773.317 329.918 757.315 367.223C743.102 400.421 715.518 422.355 672.985 434.251C635.68 444.709 593.252 446.078 552.263 447.447C526.294 448.289 501.798 449.096 481.093 452.29L479.689 452.5C457.159 455.939 435.858 459.203 416.661 466.292C395.149 474.223 379.006 485.944 365.811 503.175C353.072 519.81 341.386 544.937 332.612 574.485H334.156C342.263 547.288 353.493 521.564 366.934 504.018C395.465 466.818 434.594 460.817 479.9 453.869L481.304 453.658C501.904 450.5 526.399 449.693 552.298 448.85C593.393 447.482 635.891 446.078 673.371 435.62C716.325 423.583 744.225 401.404 758.613 367.784C774.791 330.024 774.546 297.071 757.911 269.873C745.488 249.589 724.467 233.165 695.339 221.023C670.107 210.495 639.892 203.792 607.992 201.616C603.64 201.335 599.218 201.02 594.726 200.739C547.174 197.651 493.271 194.176 448.737 172.348C419.539 158.065 406.835 125.639 394.552 94.2649C391.605 86.7549 388.832 79.666 385.849 72.8579C376.479 51.4859 371.04 22.5688 365.284 -8.03282C362.231 -24.246 359.108 -40.9506 355.248 -57.1638H353.809C357.669 -40.9857 360.792 -24.246 363.881 -7.75207C369.706 22.8846 375.146 51.8719 384.586 73.3843Z" fill="#1B8679"/>
<path d="M352.932 37.3074C358.336 56.679 366.864 78.5423 377.602 100.511C387.92 121.602 399.782 141.886 411.959 159.187C423.364 175.401 439.788 187.508 462.178 196.141C481.514 203.616 502.43 207.546 523.943 211.231C535.769 213.267 550.93 214.776 566.967 216.355C596.271 219.268 629.504 222.601 659.263 230.252C693.69 239.131 716.22 252.15 728.152 269.978C739.207 286.472 740.996 307.563 733.451 332.585C719.624 378.663 699.656 400.877 659.72 414.669C615.326 429.969 568.055 432.672 522.363 435.304C517.661 435.584 512.958 435.83 508.256 436.111C463.827 438.778 418.1 443.972 384.586 463.624C364.863 475.205 347.878 491.874 334.122 513.106C323.032 530.267 313.732 550.832 306.468 574.414H307.942C324.085 522.336 350.089 485.487 385.288 464.817C418.521 445.305 464.073 440.146 508.326 437.479C513.029 437.199 517.731 436.918 522.434 436.672C568.231 434.04 615.607 431.338 660.176 415.967C681.513 408.597 696.989 398.736 708.886 384.874C719.835 372.135 727.836 356.132 734.785 332.971C738.75 319.811 740.189 307.633 739.066 296.789C738.049 286.647 734.75 277.347 729.275 269.171C717.133 251.027 694.322 237.867 659.544 228.883C629.715 221.163 596.411 217.864 567.038 214.916C551.035 213.337 535.91 211.828 524.118 209.792C488.182 203.651 438.981 195.193 413.047 158.31C387.534 122.023 365.004 75.4892 354.23 36.8863C351.142 25.7967 348.826 14.7422 346.615 4.07379C342.158 -17.4386 337.841 -38.1789 327.454 -57.2698H325.839C336.438 -38.1438 340.754 -17.2982 345.246 4.35454C347.527 15.0932 349.843 26.1476 352.932 37.3074Z" fill="#1B8679"/>
<path d="M335.035 33.833C345.493 71.734 367.531 116.935 395.501 157.819C425.33 201.405 461.863 215.407 511.134 223.794C519.697 225.268 531.98 226.251 546.193 227.409C576.338 229.866 617.643 233.27 650.175 243.763C688.567 256.151 706.991 275.417 706.5 302.685C706.255 316.863 697.306 333.321 689.445 347.815C686.707 352.869 684.111 357.676 681.97 362.133C673.232 380.593 662.598 391.191 644.069 399.929C603.957 418.844 555.177 421.512 512.152 423.828L505.203 424.214C460.459 426.67 414.206 429.197 374.796 452.78C359.425 461.975 345.984 473.836 333.701 489.102C321.559 504.157 311.697 521.107 303.626 535.706C297.274 547.217 291.449 560.307 286.395 574.484H287.869C292.887 560.552 298.608 547.708 304.854 536.408C325.314 499.384 344.264 472.678 375.498 453.973C414.627 430.566 460.705 428.039 505.274 425.582L512.222 425.196C555.387 422.845 604.308 420.213 644.665 401.157C663.511 392.279 674.319 381.47 683.233 362.695C685.339 358.273 687.936 353.5 690.673 348.447C698.639 333.778 707.623 317.178 707.904 302.685C708.185 287.805 702.745 274.996 691.726 264.573C682.286 255.624 668.459 248.184 650.596 242.429C617.889 231.866 576.514 228.497 546.298 226.005C532.12 224.847 519.873 223.83 511.38 222.391C462.459 214.038 426.208 200.176 396.659 157.011C368.76 116.268 346.826 71.2427 336.403 33.4469C330.332 11.4082 325.068 -7.61256 315.523 -22.9134C306.749 -36.8806 294.431 -47.6543 276.078 -57.2349H272.989C315.839 -35.7225 322.752 -10.6306 335.035 33.833Z" fill="#1B8679"/>
<path d="M84.7473 101.705C75.0264 120.726 64.9897 140.413 47.864 156.1C18.2801 183.157 3.78644 203.055 1.47026 242.851C-0.600256 278.471 3.54082 316.618 13.7881 356.309C23.0178 392.069 36.8446 427.935 54.9178 462.923C58.2868 469.486 61.6207 476.855 65.13 484.646C76.9215 510.791 90.257 540.445 112.577 553.991C130.474 564.87 157.602 567.221 181.57 569.327C189.572 570.029 197.082 570.695 203.855 571.608C207.189 572.064 210.453 572.275 213.646 572.275C254.144 572.275 282.675 536.655 310.364 502.158C326.717 481.768 342.159 462.502 359.846 450.114C405.257 418.249 455.09 414.704 507.835 410.914C523.066 409.826 538.823 408.703 554.405 406.844C586.199 403.053 611.081 396.351 630.523 386.314C657.194 372.557 672.986 352.519 677.513 326.725C680.566 309.248 677.408 294.193 668.073 282.051C656.913 267.522 637.366 256.994 608.308 249.905C583.883 243.939 557.984 241.658 537.209 239.833C532.226 239.412 527.488 238.991 523.312 238.57C454.248 231.551 412.732 216.531 377.498 153.994C370.971 142.413 363.355 130.482 355.986 118.901C342.861 98.3008 329.279 76.999 320.225 55.4866C316.751 47.1695 314.224 38.0451 311.768 29.1665C306.118 8.70691 300.292 -12.4545 282.008 -25.9304C265.514 -38.0728 247.231 -45.1617 230.456 -45.9689C211.154 -46.8813 194.345 -39.4064 181.886 -24.3863C171.674 -12.1036 160.83 0.214265 150.337 12.0759C136.931 27.2714 123.105 42.9582 110.366 58.8907C99.7323 72.3666 92.117 87.2814 84.7473 101.705ZM151.46 13.0936C161.953 1.19688 172.797 -11.0859 183.044 -23.4037C195.713 -38.6694 211.33 -44.5651 227.227 -44.5651C246.423 -44.5651 266.041 -35.9321 281.271 -24.7022C299.169 -11.5421 304.924 9.40878 310.504 29.6227C312.961 38.5014 315.488 47.6959 318.997 56.0832C328.086 77.7009 341.702 99.0729 354.863 119.708C362.232 131.254 369.812 143.185 376.34 154.731C393.43 185.087 412.662 205.266 436.841 218.18C457.968 229.481 483.796 236.008 523.206 240.009C527.383 240.43 532.12 240.851 537.104 241.272C557.844 243.097 583.673 245.343 607.993 251.309C636.699 258.328 656.001 268.645 666.95 282.928C676.039 294.755 679.127 309.424 676.109 326.479C671.687 351.817 656.106 371.539 629.856 385.085C610.589 395.017 585.848 401.685 554.229 405.475C538.683 407.335 522.926 408.458 507.73 409.546C481.094 411.441 455.932 413.231 431.016 418.635C402.73 424.741 379.884 434.392 359.039 448.991C341.176 461.519 325.665 480.856 309.276 501.315C281.798 535.567 253.477 570.906 213.611 570.906C210.488 570.906 207.329 570.695 204.065 570.239C197.257 569.292 189.712 568.66 181.711 567.958C157.917 565.888 130.93 563.536 113.349 552.833C91.4151 539.497 78.1497 510.054 66.4636 484.12C62.9542 476.294 59.6203 468.924 56.2162 462.326C17.9291 388.139 -0.986251 310.231 2.90914 242.957C5.19022 203.652 19.5435 183.964 48.8466 157.153C66.1477 141.326 76.2547 121.533 86.0458 102.372C93.3803 88.0184 100.961 73.1738 111.559 59.8733C124.228 43.9409 138.09 28.254 151.46 13.0936Z" fill="#1B8679"/>
<path d="M39.7567 184.49C20.9817 206.74 12.875 239.412 15.5773 281.559C17.4723 311.003 24.7016 345.079 37.0194 382.839C44.74 406.527 58.2861 427.338 71.376 447.482C75.4469 453.763 79.6932 460.256 83.6587 466.748C85.6591 470.012 87.6594 473.416 89.6246 476.715C99.9422 494.261 110.611 512.37 128.965 522.792C143.809 531.215 160.093 535.461 177.71 535.461C188.975 535.461 200.766 533.742 213.049 530.267C237.053 523.494 262.882 510.194 289.728 490.682C296.572 485.734 303.309 480.715 309.802 475.872C353.037 443.727 393.886 413.371 452.176 405.755C465.091 404.071 478.812 403.053 492.078 402.071C537.735 398.702 584.97 395.192 620.801 364.731C641.471 347.149 649.683 328.409 644.594 310.582C641.12 298.369 631.54 287.034 616.941 277.804C603.395 269.241 586.304 263.065 568.792 260.468C554.229 258.292 540.191 256.924 526.645 255.625C473.127 250.431 426.909 245.939 389.043 194.527C352.827 145.361 320.014 90.6502 291.097 42.3966C277.059 18.9892 258.635 -4.76918 228.244 -3.57599C207.223 -2.76884 191.817 11.795 176.902 25.8675C174.095 28.5346 171.428 31.0263 168.726 33.4477C166.901 35.062 165.111 36.6763 163.356 38.2204C138.335 60.4347 118.577 78.0166 102.504 109.039C91.1688 130.938 77.2717 145.045 62.5324 160.03C55.1277 167.54 47.4773 175.366 39.7567 184.49ZM103.803 109.671C119.77 78.8588 139.422 61.3822 164.339 39.2382C166.094 37.659 167.918 36.0797 169.708 34.4654C172.446 32.0089 175.218 29.3769 177.92 26.8501C192.624 12.9531 207.855 -1.40019 228.35 -2.20734C229.051 -2.24244 229.753 -2.24244 230.42 -2.24244C258.846 -2.24244 276.463 20.6035 289.939 43.0985C318.891 91.3872 351.703 146.133 387.955 195.334C426.207 247.238 472.706 251.765 526.54 256.994C540.086 258.292 554.123 259.661 568.617 261.837C605.886 267.381 636.593 287.595 643.261 310.968C648.209 328.234 640.138 346.482 619.924 363.678C584.444 393.859 537.454 397.333 492.008 400.702C478.742 401.685 464.986 402.702 452.036 404.387C425.225 407.896 400.799 416.073 375.076 430.145C352.195 442.674 331.209 458.255 308.995 474.784C302.502 479.627 295.764 484.611 288.921 489.594C258.179 511.913 217.611 534.022 177.499 534.022C161.216 534.022 145.037 530.373 129.631 521.599C111.628 511.352 101.03 493.384 90.8179 476.013C88.8877 472.714 86.8523 469.31 84.852 466.011C80.8513 459.484 76.64 452.991 72.5341 446.71C59.4793 426.671 46.0034 405.931 38.353 382.418C26.0702 344.763 18.876 310.792 16.981 281.454C14.2788 239.693 22.3152 207.371 40.8446 185.368C48.5301 176.279 56.1805 168.488 63.5852 160.978C78.3596 145.958 92.362 131.745 103.803 109.671Z" fill="#1B8679"/>
<path d="M115.279 446.043C131.282 464.187 147.846 476.048 165.919 482.295C175.605 485.629 185.572 487.313 196.065 487.313C202.978 487.313 210.102 486.576 217.472 485.137C251.863 478.399 286.676 456.852 320.331 435.971C339.808 423.899 359.916 411.406 379.288 402.387C404.801 390.455 432.841 385.261 459.933 380.243C485.236 375.54 511.38 370.697 535.595 360.38C544.754 356.484 552.44 351.22 557.809 345.149C563.213 339.078 566.021 332.48 565.951 326.093C565.81 315.179 557.318 305.809 542.017 299.703C526.751 293.597 510.257 292.088 494.325 290.649C482.042 289.526 469.303 288.368 457.336 285.104C419.891 274.892 396.098 243.518 373.041 213.197C369.321 208.284 365.461 203.231 361.706 198.423C354.477 189.263 347.563 179.578 340.264 169.33C319.629 140.343 298.292 110.408 268.919 92.4052C257.654 85.5269 245.617 81.6315 233.088 80.8243C221.613 80.0874 209.786 81.9824 197.854 86.3691C176.623 94.2301 155.637 110.022 138.757 130.903C138.722 130.938 138.722 130.938 138.722 130.973C128.86 146.765 115.419 160.592 102.47 173.963C90.3627 186.421 77.8343 199.335 68.5696 213.548C58.1819 229.516 53.0231 245.624 52.7775 262.785C52.3564 293.772 57.831 328.304 68.2537 360.029C79.3433 394.034 95.6267 423.794 115.279 446.043ZM54.1461 262.785C54.6725 225.094 78.3607 200.704 103.417 174.91C116.437 161.504 129.913 147.643 139.845 131.745C169.007 95.7391 220.069 64.1549 268.147 93.5984C297.274 111.426 318.506 141.255 339.071 170.137C346.37 180.385 353.284 190.106 360.548 199.3C364.338 204.108 368.163 209.162 371.883 214.04C383.289 229.06 395.08 244.571 408.696 257.591C424.173 272.365 439.93 281.805 456.915 286.438C469.022 289.736 481.796 290.93 494.149 292.053C509.977 293.491 526.365 295 541.455 301.037C556.195 306.932 564.407 315.846 564.512 326.128C564.652 338.481 553.071 351.431 535.033 359.116C510.959 369.364 484.885 374.207 459.652 378.874C432.455 383.928 404.345 389.121 378.691 401.123C359.285 410.213 339.106 422.706 319.594 434.778C286.044 455.589 251.337 477.066 217.191 483.769C178.834 491.279 145.846 478.61 116.332 445.131C78.1852 401.86 53.1986 328.585 54.1461 262.785Z" fill="#1B8679"/>
<path d="M34.6332 271.101C37.2652 306.405 46.4948 348.833 59.304 384.593C67.1299 406.457 76.2892 426.039 86.4664 442.779C98.0122 461.729 110.892 477.03 124.789 488.155C143.774 503.42 164.725 511.106 187.255 511.106C192.133 511.106 197.046 510.755 202.065 510.018C244.528 503.912 282.324 477.662 318.891 452.289C332.893 442.568 346.089 433.409 359.494 425.372C394.869 404.141 431.436 399.087 470.144 393.753C490.885 390.875 512.292 387.927 533.559 382.277C544.613 379.329 562.23 372.872 578.478 363.607C591.849 355.957 608.834 343.674 613.782 328.514C617.081 318.407 614.695 308.23 606.729 298.333C598.762 288.472 586.129 281.839 568.126 278.049C552.685 274.821 536.015 274.189 521.311 273.628C516.433 273.452 511.8 273.277 507.589 273.031C451.44 269.592 414.556 250.325 384.165 208.599C348.124 159.047 311.451 111.425 270.673 58.7496C270.638 58.7145 270.638 58.7145 270.602 58.6794C257.127 45.1333 241.019 39.3429 222.735 41.4836C199.011 44.256 176.517 59.8726 161.847 72.4712C145.108 86.8596 128.754 105.775 118.121 123.076C107.733 139.991 94.7836 154.309 82.2552 168.136C55.9701 197.159 31.1589 224.567 34.6332 271.101ZM83.308 169.049C95.8715 155.187 108.856 140.833 119.314 123.778C129.877 106.582 146.09 87.8071 162.76 73.4889C177.289 60.9956 199.538 45.5544 222.875 42.8172C225.297 42.5364 227.648 42.396 229.964 42.396C244.879 42.396 258.144 48.1514 269.55 59.5568C310.293 112.197 346.931 159.819 382.972 209.336C413.609 251.448 450.843 270.89 507.449 274.365C511.695 274.61 516.328 274.786 521.206 274.961C535.84 275.488 552.439 276.119 567.775 279.348C585.462 283.068 597.815 289.525 605.571 299.141C613.256 308.651 615.537 318.372 612.379 327.987C603.114 356.378 550.754 376.136 533.137 380.838C511.941 386.488 490.569 389.436 469.899 392.314C431.05 397.683 394.342 402.772 358.722 424.109C345.317 432.145 332.086 441.34 318.049 451.096C281.622 476.398 243.966 502.543 201.819 508.579C174.06 512.58 148.407 505.315 125.631 486.996C68.2529 440.884 40.5991 332.515 36.0019 270.925C32.5978 225.058 57.2334 197.861 83.308 169.049Z" fill="#1B8679"/>
<path d="M165.568 461.098C177.78 466.362 190.625 468.959 204.346 468.959C216.699 468.959 229.719 466.818 243.616 462.572C269.269 454.711 294.256 440.569 315.663 427.935C321.067 424.741 326.542 421.443 331.841 418.249C351.529 406.352 371.918 394.07 393.29 384.84C409.995 377.646 427.682 373.259 444.807 368.978C455.686 366.275 466.916 363.468 477.831 359.994C478.989 359.608 480.462 359.187 482.182 358.66C496.29 354.449 522.575 346.623 524.084 334.305C524.47 331.252 523.733 328.585 521.943 326.374C516.504 319.566 502.221 318.057 491.763 316.969C488.499 316.618 485.691 316.337 483.621 315.916C429.156 305.283 403.678 273.418 371.462 233.06C368.233 228.989 364.864 224.813 361.425 220.567C358.933 217.479 356.407 214.355 353.915 211.232C336.649 189.79 318.786 167.646 298.748 148.45C283.833 134.167 270.813 125.92 256.53 121.779C243.265 117.918 228.385 117.357 206.768 119.919C179.079 123.182 160.374 144.344 145.319 161.329C137.072 170.629 127.807 179.192 118.858 187.439C110.225 195.405 101.276 203.652 93.2751 212.566C77.2374 230.463 69.6571 254.853 70.745 285.104C71.5522 307.529 76.9215 332.761 87.2039 362.24C95.0298 384.77 104.856 404.212 116.367 420.004C130.404 439.27 146.968 453.097 165.568 461.098ZM94.363 213.478C102.294 204.634 111.208 196.387 119.841 188.456C128.825 180.174 138.09 171.611 146.407 162.241C161.286 145.432 179.816 124.516 206.978 121.287C215.401 120.305 223.121 119.673 230.351 119.673C254.916 119.673 274.042 126.692 297.836 149.467C317.804 168.593 335.631 190.702 352.897 212.109C355.424 215.233 357.916 218.321 360.442 221.444C363.882 225.655 367.216 229.867 370.444 233.938C386.096 253.555 400.905 272.084 418.277 286.578C437.473 302.616 458.178 312.372 483.445 317.285C485.551 317.706 488.394 317.987 491.692 318.338C501.905 319.425 515.872 320.864 520.925 327.251C522.469 329.217 523.066 331.463 522.75 334.165C521.347 345.57 494.675 353.536 481.831 357.362C480.112 357.888 478.638 358.309 477.444 358.695C466.565 362.169 455.336 364.977 444.492 367.644C427.296 371.925 409.538 376.347 392.764 383.577C371.286 392.841 350.897 405.159 331.139 417.056C325.84 420.249 320.366 423.548 314.961 426.742C279.166 447.868 241.721 467.626 204.522 467.626C191.678 467.626 178.868 465.274 166.164 459.8C123.947 441.656 100.68 396.491 88.6077 361.783C64.9897 293.983 66.9549 244.08 94.363 213.478Z" fill="#1B8679"/>
<path d="M174.236 447.025C185.992 451.622 198.1 453.939 210.803 453.939C222.244 453.939 234.176 452.079 246.704 448.324C269.971 441.375 292.291 429.092 313.838 417.196L314.329 416.95C358.723 392.49 397.115 372.802 440.14 356.273C453.23 351.255 459.547 346.412 460.003 341.043C460.67 333.568 449.475 326.724 437.613 319.53C431.893 316.056 425.997 312.441 421.189 308.651C396.203 288.964 376.515 261.801 357.46 235.551C337.351 207.827 318.365 181.648 293.765 163.68C280.534 153.994 266.918 147.642 252.179 144.238C235.685 140.448 218.173 140.448 198.661 144.203C179.149 147.958 162.69 165.575 148.161 181.121C143.529 186.069 139.142 190.772 134.896 194.738C132.194 197.264 129.421 199.791 126.754 202.212C112.155 215.513 98.3637 228.041 91.1695 247.202C84.9229 263.837 83.0628 283.735 85.5896 306.335C87.6601 324.759 92.6785 344.868 100.153 364.485C107.383 383.471 116.963 400.035 128.614 413.721C141.704 429.057 157.075 440.287 174.236 447.025ZM101.452 363.924C93.4857 343.008 76.6408 289.841 92.468 247.624C99.5218 228.813 113.208 216.355 127.667 203.195C130.334 200.774 133.106 198.247 135.809 195.685C140.09 191.649 144.477 186.982 149.109 181.999C163.497 166.628 179.781 149.186 198.872 145.501C279.166 129.99 316.646 181.648 356.301 236.288C375.427 262.644 395.185 289.876 420.312 309.669C425.19 313.529 431.121 317.144 436.876 320.653C448.352 327.637 459.196 334.234 458.599 340.867C458.178 345.605 451.966 350.202 439.614 354.94C396.519 371.504 358.091 391.191 313.628 415.687L313.136 415.932C280.289 434.041 246.599 452.605 211.014 452.605C199.152 452.605 187.045 450.535 174.692 445.692C142.827 433.163 116.788 404.141 101.452 363.924Z" fill="#1B8679"/>
<path d="M180.939 430.075C191.011 433.338 201.925 434.988 213.576 434.988C220.419 434.988 227.543 434.426 234.878 433.268C272.428 427.442 311.452 407.404 341.246 390.594C345.001 388.489 349.704 386.172 355.178 383.47C367.18 377.575 382.13 370.205 393.465 361.537C406.906 351.219 412.556 341.182 410.696 330.795C408.731 319.635 397.08 304.966 387.745 293.21C383.815 288.261 380.095 283.594 377.603 279.804C367.637 264.749 356.898 248.781 344.58 234.147C309.592 192.456 274.533 170.312 240.387 168.312C212.734 166.732 185.396 178.454 159.216 203.23C158.163 204.107 157.11 204.949 156.057 205.792C128.439 228.286 104.61 247.728 101.101 286.542C99.4164 305.176 101.452 325.145 106.997 344.271C112.647 363.783 121.736 381.645 133.247 395.999C146.758 412.668 162.76 424.144 180.939 430.075ZM134.44 395.121C111.348 366.415 99.1357 324.864 102.575 286.682C106.014 248.465 129.667 229.199 157.005 206.915C158.058 206.072 159.111 205.195 160.163 204.318L160.198 204.282C184.553 181.226 209.856 169.575 235.474 169.575C237.088 169.575 238.703 169.61 240.352 169.715C274.077 171.645 308.82 193.649 343.562 235.024C355.81 249.623 366.549 265.521 376.48 280.576C379.007 284.401 382.727 289.104 386.692 294.087C395.922 305.738 407.433 320.232 409.363 331.076C411.082 340.867 405.643 350.482 392.658 360.449C381.463 369.047 366.584 376.381 354.617 382.242C349.142 384.944 344.37 387.26 340.615 389.401C310.925 406.141 272.042 426.109 234.702 431.899C227.262 433.057 220.138 433.619 213.26 433.619C181.114 433.619 155.18 420.915 134.44 395.121Z" fill="#1B8679"/>
<path d="M222.279 419.161C254.074 419.161 285.693 407.826 307.381 397.824C323.77 390.244 339.597 382.593 352.687 371.925C368.479 359.081 376.551 344.727 377.428 327.988C378.095 314.933 374.445 300.79 366.619 285.91C360.794 274.821 352.792 263.38 341.422 249.975C325.279 230.884 299.555 205.792 268.603 194.772C254.214 189.649 240.037 188.14 226.526 190.28C211.611 192.632 197.258 199.475 183.852 210.6C180.062 213.197 176.166 215.723 172.446 218.18C147.811 234.288 124.544 249.518 117.525 281.138C114.437 295.035 114.577 311.002 117.946 327.286C121.105 342.622 126.895 357.536 134.686 370.451C152.619 400.175 179.114 416.459 213.401 418.88C216.349 419.091 219.296 419.161 222.279 419.161ZM135.879 369.714C119.631 342.797 112.963 308.125 118.894 281.418C125.807 250.361 148.829 235.27 173.219 219.303C176.974 216.846 180.869 214.284 184.694 211.688C184.729 211.688 184.729 211.652 184.764 211.652C201.574 197.685 219.577 190.667 238.598 190.667C248.213 190.667 258.075 192.456 268.147 196.036C298.783 206.915 324.331 231.831 340.369 250.817C356.407 269.803 377.533 298.439 376.024 327.882C374.094 365.468 333.596 384.137 306.785 396.525C284.5 406.808 253.197 417.897 221.964 417.897C189.888 417.932 157.883 406.176 135.879 369.714Z" fill="#1B8679"/>
<path d="M272.778 401.193C288.851 397.403 304.257 391.472 317.347 383.997C331.385 375.961 342.334 366.556 349.879 356.028C360.688 340.937 363.495 323.742 358.231 304.896C352.16 283.209 336.965 264.855 325.243 253.274C310.609 238.815 293.063 226.568 277.095 219.724C257.232 211.232 228.666 212.109 200.626 222.076C187.15 226.883 174.551 233.551 164.129 241.447C152.899 249.94 144.582 259.45 139.353 269.733C133.948 280.401 131.106 292.228 130.93 304.931C130.79 316.898 132.966 329.041 137.423 341.008C146.406 365.047 163.427 384.945 184.062 395.648C197.257 402.456 214.418 405.966 233.298 405.966C245.967 405.931 259.338 404.352 272.778 401.193ZM184.764 394.35C141.178 371.785 119.7 311.494 140.651 270.329C150.512 250.887 173.148 233.341 201.117 223.374C216.208 218.005 231.438 215.302 245.37 215.302C256.986 215.302 267.69 217.198 276.569 220.988C308.293 234.569 347.001 269.803 356.898 305.247C362.021 323.636 359.284 340.446 348.756 355.185C334.368 375.259 305.837 391.964 272.463 399.824C239.264 407.65 206.487 405.615 184.764 394.35Z" fill="#1B8679"/>
<path d="M342.369 326.023C344.159 308.195 337.982 290.543 324.506 274.997C305.626 253.168 274.042 237.657 245.932 236.394C230.736 235.481 215.05 238.113 200.626 244.114C186.027 250.15 173.709 259.169 165.006 270.154C158.514 278.365 154.197 287.42 152.197 297.07C150.056 307.493 150.653 318.407 153.987 329.497C160.549 351.255 174.481 368.451 194.309 379.154C208.066 386.559 223.963 390.419 240.387 390.419C246.178 390.419 252.003 389.928 257.829 388.98C269.585 387.05 292.115 382.067 311.171 370.381C330.121 358.8 340.614 343.885 342.369 326.023ZM257.653 387.577C251.652 388.559 245.756 389.051 239.966 389.051C199.994 389.051 166.445 366.029 155.355 329.111C147.354 302.475 156.794 282.822 166.129 271.066C182.483 250.396 210.944 237.657 239.931 237.657C241.931 237.657 243.896 237.727 245.897 237.832C273.656 239.096 304.854 254.432 323.489 275.979C336.684 291.245 342.755 308.511 341 325.952C336.473 371.118 276.077 384.524 257.653 387.577Z" fill="#1B8679"/>
<path d="M274.603 297.877C265.514 292.368 253.758 288.893 242.422 288.367C230.456 287.806 220.314 290.473 213.821 295.912C200.065 307.388 200.766 318.477 203.784 325.777C207.259 334.164 215.857 342.165 227.402 347.815C237.158 352.588 248.002 355.185 257.829 355.185C259.408 355.185 260.987 355.115 262.531 354.975C278.393 353.536 288.816 344.938 291.869 330.795C293.308 324.092 292.325 317.705 288.956 311.774C285.938 306.51 280.99 301.738 274.603 297.877ZM290.501 330.479C287.588 343.99 277.586 352.202 262.391 353.571C251.652 354.553 239.124 351.992 227.999 346.552C216.769 341.078 208.417 333.287 205.083 325.25C201.012 315.424 204.346 305.668 214.699 297C220.91 291.806 230.736 289.244 242.352 289.771C253.477 290.297 264.988 293.666 273.866 299.071C281.622 303.738 294.045 314.056 290.501 330.479Z" fill="#1B8679"/>
<path d="M253.372 307.318C246.985 304.37 240.141 303.177 235.053 304.089C229.368 305.107 225.928 308.722 225.437 314.196C224.49 324.654 228.28 332.901 235.825 336.761C238.808 338.305 242.212 339.042 245.686 339.042C251.933 339.042 258.495 336.656 263.654 332.199C269.304 327.321 268.567 322.303 266.988 318.969C264.847 314.582 259.899 310.336 253.372 307.318ZM262.707 331.146C255.091 337.744 244.282 339.569 236.457 335.533C229.333 331.883 225.893 324.338 226.806 314.337C227.367 308.16 231.719 306.09 235.298 305.458C236.386 305.247 237.544 305.177 238.738 305.177C248.88 305.177 262.005 311.915 265.689 319.601C267.69 323.812 266.707 327.707 262.707 331.146Z" fill="#1B8679"/>
<path d="M239.264 312.828C236.281 313.74 234.456 315.775 234.14 318.548C233.754 321.882 235.649 324.479 239.229 325.461C240.246 325.742 241.334 325.882 242.457 325.882C246.177 325.882 250.108 324.338 251.512 321.25C252.494 319.074 252.249 317.004 250.775 315.319C248.423 312.722 243.265 311.564 239.264 312.828ZM250.213 320.689C248.739 323.952 243.37 325.18 239.58 324.128C237.86 323.636 235.088 322.303 235.509 318.723C235.86 315.916 237.965 314.723 239.65 314.196C240.632 313.88 241.685 313.74 242.738 313.74C245.475 313.74 248.248 314.688 249.687 316.302C250.81 317.53 250.985 319.004 250.213 320.689Z" fill="#1B8679"/>
<path d="M301.099 279.734C288.956 269.873 272.076 263.31 253.512 261.275C235.123 259.239 217.26 261.871 203.152 268.609C187.36 276.189 177.604 288.332 174.937 303.773C173.007 315.038 173.99 325.531 177.955 334.936C181.57 343.534 187.536 351.044 195.678 357.291C207.574 366.415 223.752 372.381 241.229 374.065C244.703 374.416 248.142 374.557 251.546 374.557C265.233 374.557 278.393 371.89 289.377 366.766C298.607 362.485 305.977 356.729 311.311 349.605C317.136 341.85 320.33 332.69 320.821 322.408C321.698 305.668 314.855 290.929 301.099 279.734ZM319.488 322.337C318.575 341.463 307.661 356.799 288.851 365.538C260.425 378.733 220.734 374.697 196.555 356.203C184.763 347.184 171.709 330.795 176.341 304.019C178.938 289.069 188.413 277.277 203.784 269.908C214.558 264.749 227.613 262.047 241.439 262.047C245.37 262.047 249.371 262.257 253.371 262.714C287.552 266.433 321.242 286.331 319.488 322.337Z" fill="#1B8679"/>
</g>
</svg>
