<?xml version="1.0" encoding="utf-8"?>
<!-- Generator: Adobe Illustrator 24.1.1, SVG Export Plug-In . SVG Version: 6.00 Build 0)  -->
<svg version="1.1" id="Layer_1" xmlns="http://www.w3.org/2000/svg" xmlns:xlink="http://www.w3.org/1999/xlink" x="0px" y="0px"
	 viewBox="0 0 55 55" style="enable-background:new 0 0 55 55;" xml:space="preserve">
<style type="text/css">
	.st0{clip-path:url(#SVGID_2_);}
	.st1{fill:#004084;}
</style>
<g>
	<defs>
		<rect id="SVGID_1_" width="55" height="55"/>
	</defs>
	<clipPath id="SVGID_2_">
		<use xlink:href="#SVGID_1_"  style="overflow:visible;"/>
	</clipPath>
	<g class="st0">
		<path class="st1" d="M54.9,25.4c-0.9-8-7.4-14.6-15.4-15.6C30.9,8.8,22.9,14,20.3,22.3l-3.5,1.9v-10c3.5-0.4,6.2-3.4,6.2-7
			C23.1,3.2,19.9,0,16,0c-1.6,0-3.2,0.5-4.4,1.6C10.3,0.5,8.7,0,7.1,0C3.2,0,0,3.2,0,7.1c0,3.6,2.7,6.6,6.2,7v26.7
			c-3.5,0.4-6.2,3.4-6.2,7C0,51.8,3.2,55,7.1,55c1.6,0,3.2-0.5,4.4-1.6c1.3,1,2.8,1.6,4.4,1.6c3.9,0,7.1-3.2,7.1-7.1
			c0-3.6-2.7-6.6-6.2-7v-10l3.5,1.9c2.3,7.4,9.2,12.5,16.9,12.5c5,0,9.9-2.2,13.2-5.9C53.9,35.5,55.5,30.6,54.9,25.4z M16,42.6
			c2.9,0,5.3,2.4,5.3,5.3c0,2.9-2.4,5.3-5.3,5.3c-1.4,0-2.8-0.6-3.8-1.6L11.5,51l-0.6,0.7c-1,1-2.4,1.6-3.8,1.6
			c-2.9,0-5.3-2.4-5.3-5.3c0-2.9,2.4-5.3,5.3-5.3H8V12.4H7.1c-2.9,0-5.3-2.4-5.3-5.3c0-2.9,2.4-5.3,5.3-5.3c1.4,0,2.8,0.6,3.8,1.6
			L11.5,4l0.6-0.7c1-1,2.4-1.6,3.8-1.6c2.9,0,5.3,2.4,5.3,5.3c0,2.9-2.4,5.3-5.3,5.3h-0.9v12.7l-0.5,0.3c-0.8,0.4-1.2,1.2-1.2,2.1
			c0,0.9,0.5,1.7,1.2,2.1l0.5,0.3v12.7L16,42.6L16,42.6z M49.2,38.1c-3,3.4-7.4,5.3-11.9,5.3c-7.1,0-13.4-4.8-15.3-11.6l-0.1-0.4
			L15.4,28c-0.2-0.1-0.3-0.3-0.3-0.5s0.1-0.4,0.3-0.5l6.4-3.5l0.1-0.4c2-7,8.3-11.6,15.4-11.6c0.7,0,1.3,0,2,0.1
			c7.2,0.9,13,6.8,13.8,14C53.6,30.3,52.2,34.7,49.2,38.1z"/>
		<path class="st1" d="M37.3,13.3c-7.8,0-14.2,6.4-14.2,14.2c0,7.8,6.4,14.2,14.2,14.2c7.8,0,14.2-6.4,14.2-14.2
			C51.4,19.7,45.1,13.3,37.3,13.3z M37.3,39.9c-6.8,0-12.4-5.6-12.4-12.4c0-6.8,5.6-12.4,12.4-12.4c6.8,0,12.4,5.6,12.4,12.4
			C49.7,34.4,44.1,39.9,37.3,39.9z"/>
		<path class="st1" d="M33.7,28.4c1.5,0,2.7-1.2,2.7-2.7c0-1.5-1.2-2.7-2.7-2.7c1.5,0,2.7-1.2,2.7-2.7c0-1.5-1.2-2.7-2.7-2.7
			c-2.9,0-5.3,2.4-5.3,5.3C28.4,26,30.8,28.4,33.7,28.4z M33.7,19.5c0.5,0,0.9,0.4,0.9,0.9s-0.4,0.9-0.9,0.9c-1,0-1.8,0.8-1.8,1.8
			c0,1,0.8,1.8,1.8,1.8c0.5,0,0.9,0.4,0.9,0.9s-0.4,0.9-0.9,0.9c-2,0-3.6-1.6-3.6-3.6C30.2,21.1,31.7,19.5,33.7,19.5z"/>
		<path class="st1" d="M31.9,31c-1.5,0-2.7,1.2-2.7,2.7s1.2,2.7,2.7,2.7s2.7-1.2,2.7-2.7C34.6,32.2,33.4,31,31.9,31z M31.9,34.6
			c-0.5,0-0.9-0.4-0.9-0.9c0-0.5,0.4-0.9,0.9-0.9c0.5,0,0.9,0.4,0.9,0.9C32.8,34.2,32.4,34.6,31.9,34.6z"/>
		<path class="st1" d="M43.5,19.5h-1.8v1.8h1.8V19.5z"/>
		<path class="st1" d="M29.3,28.4h-1.8v1.8h1.8V28.4z"/>
		<path class="st1" d="M42.1,24.6c-0.6-0.4-1.4-0.6-2.2-0.6c-1.5,0-2.7,1.2-2.7,2.7c0,1.2,0.8,2.2,1.9,2.5c0,0.1,0.1,0.3,0.2,0.6
			c-0.1,0.2-0.1,0.4-0.2,0.6c-1.1,0.3-1.9,1.4-1.9,2.6c0,1.5,1.2,2.7,2.7,2.7c0.9,0,1.6-0.2,2.2-0.6c0.6,0.4,1.4,0.6,2.2,0.6
			c1.5,0,2.7-1.2,2.7-2.7c0-1.2-0.8-2.2-1.9-2.5c0-0.1-0.1-0.3-0.2-0.6c0.1-0.2,0.1-0.4,0.2-0.6c1.1-0.3,1.9-1.4,1.9-2.6
			c0-1.5-1.2-2.7-2.7-2.7C43.5,24,42.7,24.2,42.1,24.6z M39,26.6c0-0.5,0.4-0.9,0.9-0.9c0.3,0,0.7,0.1,0.9,0.2
			c-0.3,0.5-0.6,1.1-0.8,1.6l-0.2,0C39.4,27.5,39,27.1,39,26.6z M45.2,32.8c0,0.5-0.4,0.9-0.9,0.9c-0.3,0-0.7-0.1-0.9-0.2
			c0.3-0.5,0.6-1.1,0.8-1.6l0.2,0C44.9,32,45.2,32.4,45.2,32.8z M45.2,26.6c0,0.5-0.4,0.8-0.8,0.9l-0.4,0l-0.2,0.3
			c-0.3,0.4-0.5,1.1-0.8,2.1c-0.6,2-1.2,3.8-3.1,3.8c-0.5,0-0.9-0.4-0.9-0.9c0-0.5,0.4-0.8,0.8-0.9l0.4,0l0.2-0.3
			c0.3-0.4,0.5-1.1,0.8-2.1c0.6-2,1.2-3.8,3.1-3.8C44.8,25.7,45.2,26.1,45.2,26.6z"/>
		<path class="st1" d="M37.2,36.4h-1.8v1.8h1.8V36.4z"/>
		<path class="st1" d="M39.9,16.9h-1.8v1.8h1.8V16.9z"/>
	</g>
</g>
</svg>
