<?xml version="1.0" encoding="utf-8"?>
<!-- Generator: Adobe Illustrator 24.1.1, SVG Export Plug-In . SVG Version: 6.00 Build 0)  -->
<svg version="1.1" id="Layer_1" xmlns="http://www.w3.org/2000/svg" xmlns:xlink="http://www.w3.org/1999/xlink" x="0px" y="0px"
	 viewBox="0 0 32 55" style="enable-background:new 0 0 32 55;" xml:space="preserve">
<style type="text/css">
	.st0{clip-path:url(#SVGID_2_);}
	.st1{fill:#004084;}
</style>
<g>
	<defs>
		<rect id="SVGID_1_" width="31.3" height="55"/>
	</defs>
	<clipPath id="SVGID_2_">
		<use xlink:href="#SVGID_1_"  style="overflow:visible;"/>
	</clipPath>
	<g class="st0">
		<path class="st1" d="M22.8,55c-0.2,0-0.4,0-0.6-0.2c-0.2-0.1-0.3-0.2-0.4-0.4l-6.3-11.5L9.4,54.4c-0.1,0.2-0.2,0.3-0.4,0.4
			C8.8,55,8.6,55,8.4,55H1.1c-0.2,0-0.4,0-0.5-0.1c-0.2-0.1-0.3-0.2-0.4-0.4C0.1,54.3,0,54.1,0,54c0-0.2,0-0.4,0.1-0.5L10.6,34
			L3.4,21.3c-1.2-2.2-1.9-4.6-1.9-7.1s0.6-4.9,1.9-7.1s3-3.9,5.2-5.2S13.1,0,15.6,0c2.5,0,4.9,0.6,7.1,1.9c2.1,1.2,3.9,3,5.1,5.2
			c1.3,2.2,1.9,4.6,2,7.1s-0.6,5-1.9,7.1L20.6,34l10.5,19.4c0.1,0.2,0.1,0.4,0.1,0.5c0,0.2-0.1,0.4-0.2,0.5
			c-0.1,0.2-0.2,0.3-0.4,0.4C30.5,55,30.4,55,30.2,55H22.8z M15.6,2.2c-2.1,0-4.2,0.6-6,1.6c-1.8,1-3.3,2.6-4.4,4.4s-1.6,3.9-1.6,6
			s0.6,4.2,1.6,6l8.8,15.4c0.1,0.1,0.1,0.2,0.2,0.3l9.2,17h4.9L11.9,22.4l-0.1-0.2l-2.5-4.4c-0.6-1.1-1-2.4-1-3.6s0.4-2.5,1-3.6
			c0.6-1.1,1.6-2,2.7-2.6s2.4-1,3.6-1s2.5,0.3,3.6,1c1.1,0.6,2,1.6,2.7,2.6c0.6,1.1,1,2.4,1,3.6s-0.3,2.5-1,3.6l-2.5,4.4l-0.1,0.2
			L16.9,27l2.5,4.7L26,20.2c1.1-1.8,1.6-3.9,1.6-6.1c0-2.1-0.6-4.2-1.7-6c-1-1.8-2.5-3.3-4.4-4.4C19.8,2.7,17.8,2.2,15.6,2.2
			L15.6,2.2z M2.9,52.8h4.9l6.6-12.2L12.9,38l-1-1.8L2.9,52.8z M15.6,9.1c-0.9,0-1.8,0.2-2.6,0.7s-1.4,1.1-1.9,1.9
			c-0.4,0.8-0.7,1.7-0.7,2.6c0,0.9,0.2,1.8,0.7,2.6l4.5,7.8l4.5-7.8c0.5-0.8,0.7-1.7,0.7-2.6c0-0.9-0.3-1.8-0.7-2.5
			c-0.5-0.8-1.1-1.4-1.9-1.9C17.4,9.3,16.5,9.1,15.6,9.1z"/>
	</g>
</g>
</svg>
