<?xml version="1.0" encoding="utf-8"?>
<!-- Generator: Adobe Illustrator 24.1.1, SVG Export Plug-In . SVG Version: 6.00 Build 0)  -->
<svg version="1.1" id="Layer_1" xmlns="http://www.w3.org/2000/svg" xmlns:xlink="http://www.w3.org/1999/xlink" x="0px" y="0px"
	 viewBox="0 0 46 57" style="enable-background:new 0 0 46 57;" xml:space="preserve">
<style type="text/css">
	.st0{fill:#004084;stroke:#004084;}
</style>
<path class="st0" d="M44.3,44.5c-1.8-6-4.9-15.4-4.9-15.4c0.2-4.8-1.2-9-6.2-11.2c1.7-1.3,5.2-2.2,5.2-2.2l0.7-5.8
	c0,0-2.4-0.8-7.9-0.4c-0.3-1.7-1.1-3-2.4-3.9c-2.9-1.9-7.4-1.2-9.1-0.8V1h-6v6.1c-0.1,0.1-0.1,0.1-0.2,0.2l-1.6-2.5L6.2,5.2
	L4.6,21.7c-3.2,3.4-4.3,7.5-3.1,11.9c1.3,4.8,5,10.4,9.7,14.5c4.1,3.6,10.8,7.9,20,7.9c3.7,0,7.5-0.7,11.3-2.2l0,0
	C42.6,53.7,46.5,51.8,44.3,44.5z M38.4,29.2c-1.5-0.2-5-0.6-6.3-4.4c-0.8-2.4-0.9-4.6,0.3-6.2C33.8,19.1,38.9,21.6,38.4,29.2z
	 M14.7,7.6c0-0.3,0-5.6,0-5.6h4v4c0,0,6.4-1.8,9.5,0.3c1.1,0.7,1.7,1.8,2,3.2c-1.6,0.3-3.2,0.7-4.7,1.3c-3.4,1.4-6.1,3.6-8.2,6.6
	l-6.5,0.1C10.8,16.1,11.1,10.2,14.7,7.6z M7.2,6.1l4.2-0.2l1.4,2.2c-3.2,3.7-3,8.5-2.9,9.7c-0.8,0.4-2.5,1.3-4.2,2.8L7.2,6.1z
	 M42.1,52.9c-3.7,1.4-7.4,2.1-11,2.1c-8.8,0-15.3-4.2-19.3-7.6c-4.5-4-8.1-9.3-9.4-14c-1.1-4.2-0.1-8,3-11.2
	c2.2-2.2,4.6-3.4,5.1-3.6l4.7-0.1c-1.7,0.9-3.9,2.5-5.2,5c-1.6,2.9-1.7,6.4-0.4,10.5l1-0.3c-1.2-3.7-1.1-7,0.3-9.7
	c2.2-4.2,7-5.5,7.1-5.5c0,0,4.3-7.7,16-8.1c1.8-0.1,3.3,0.2,4,0.3l-0.5,4.2c-3.6,1.1-5.5,2.3-6.4,4c-0.8,1.6-0.8,3.6,0,6.3
	c1.5,4.6,5.7,5,7.6,5.1c0.6,1.8,3.1,9.3,4.6,14.6C45.2,51.1,42.3,52.8,42.1,52.9z"/>
</svg>
