<?xml version="1.0" encoding="utf-8"?>
<!-- Generator: Adobe Illustrator 24.1.1, SVG Export Plug-In . SVG Version: 6.00 Build 0)  -->
<svg version="1.1" id="Layer_1" xmlns="http://www.w3.org/2000/svg" xmlns:xlink="http://www.w3.org/1999/xlink" x="0px" y="0px"
	 viewBox="0 0 55 55" style="enable-background:new 0 0 55 55;" xml:space="preserve">
<style type="text/css">
	.st0{fill:#004084;}
</style>
<path class="st0" d="M1.8,33.3c0-0.6,0.2-1.1,0.6-1.5c0.8-0.7,1.9-0.8,2.8-0.2L6,32.2C6.7,32.7,7.5,33,8.3,33h7.2
	c11.1,0,20.2-9,20.2-20.2V0h-1.8v12.8c0,10.1-8.2,18.3-18.3,18.3H8.3c-0.5,0-0.9-0.1-1.3-0.4l-0.7-0.6c-1.6-1.2-3.8-1-5.2,0.4
	C0.4,31.3,0,32.3,0,33.3V55h1.8V33.3z"/>
<path class="st0" d="M47.1,9.2c-1.4-0.1-2.8,0.2-4,0.9V0h-1.8v11.7c0,0.5,0.4,0.9,0.9,0.9c0.2,0,0.4-0.1,0.6-0.2
	c1.2-1,2.7-1.5,4.3-1.4c3.7,0.1,6.2,4.6,6.2,11v3.1c0,14-11.3,25.3-25.3,25.3c-6.2,0-12.1-3.1-15.5-8.3c-0.8-1.3-2.5-1.6-3.8-0.8
	c-0.8,0.5-1.2,1.4-1.2,2.3V55h1.8V43.6c0-0.5,0.4-0.9,0.9-0.9c0.3,0,0.6,0.2,0.8,0.4c3.8,5.7,10.2,9.1,17,9.1
	c15,0,27.1-12.1,27.1-27.1V22C55,14.5,51.8,9.4,47.1,9.2z"/>
<path class="st0" d="M37.6,39.4c0,1.5,1.2,2.8,2.8,2.8c1.5,0,2.8-1.2,2.8-2.8c0-1.5-1.2-2.8-2.8-2.8C38.8,36.7,37.6,37.9,37.6,39.4z
	 M41.3,39.4c0,0.5-0.4,0.9-0.9,0.9c-0.5,0-0.9-0.4-0.9-0.9c0-0.5,0.4-0.9,0.9-0.9C40.8,38.5,41.3,38.9,41.3,39.4z"/>
<path class="st0" d="M21.1,44.9c0,1.5,1.2,2.8,2.8,2.8c1.5,0,2.8-1.2,2.8-2.8c0-1.5-1.2-2.8-2.8-2.8C22.3,42.2,21.1,43.4,21.1,44.9z
	 M23.8,44c0.5,0,0.9,0.4,0.9,0.9c0,0.5-0.4,0.9-0.9,0.9c-0.5,0-0.9-0.4-0.9-0.9C22.9,44.4,23.3,44,23.8,44z"/>
<path class="st0" d="M27.5,32.1h9.3c0.5,1.4,2.1,2.2,3.5,1.7c0.8-0.3,1.4-0.9,1.7-1.7h9.3v-1.8H41.3c-0.5,0-0.9,0.4-0.9,0.9
	c0,0.5-0.4,0.9-0.9,0.9c-0.5,0-0.9-0.4-0.9-0.9c0-0.5-0.4-0.9-0.9-0.9H27.5V32.1z"/>
<path class="st0" d="M32.1,44h-1.8v1.8h1.8V44z"/>
<path class="st0" d="M17.4,38.5h-1.8v1.8h1.8V38.5z"/>
<path class="st0" d="M24.8,33h-1.8v1.8h1.8V33z"/>
<path class="st0" d="M33.9,36.7c0-1.5-1.2-2.8-2.8-2.8c-1.5,0-2.8,1.2-2.8,2.8c0,1.5,1.2,2.8,2.8,2.8C32.7,39.4,33.9,38.2,33.9,36.7
	z M31.2,37.6c-0.5,0-0.9-0.4-0.9-0.9c0-0.5,0.4-0.9,0.9-0.9c0.5,0,0.9,0.4,0.9,0.9C32.1,37.2,31.7,37.6,31.2,37.6z"/>
<path class="st0" d="M48.6,33.9h-1.8v1.8h1.8V33.9z"/>
</svg>
