<svg width="27" height="27" viewBox="0 0 27 27" fill="none" xmlns="http://www.w3.org/2000/svg">
<path d="M24.3633 2.32031H21.8496V1.58203C21.8496 0.709699 21.1399 0 20.2676 0C19.3952 0 18.6855 0.709699 18.6855 1.58203V2.32031H9.82615V1.58203C9.82615 0.709699 9.11646 0 8.24412 0C7.37179 0 6.66209 0.709699 6.66209 1.58203V2.33982C6.61727 2.32743 6.57028 2.32031 6.5215 2.32031H4.42035C2.96647 2.32031 1.78363 3.50314 1.78363 4.95703V13.9394C1.78363 14.2307 2.01978 14.4668 2.31098 14.4668C2.60218 14.4668 2.83832 14.2307 2.83832 13.9394V7.75195H21.8496C22.1408 7.75195 22.3769 7.51586 22.3769 7.22461C22.3769 6.93336 22.1408 6.69727 21.8496 6.69727H2.83832V4.95703C2.83832 4.0847 3.54802 3.375 4.42035 3.375H6.5215C6.57028 3.375 6.61727 3.36783 6.66209 3.35549V4.03418C6.66209 4.90651 7.37179 5.61621 8.24412 5.61621C9.11646 5.61621 9.82615 4.90651 9.82615 4.03418V3.375H18.6855V4.03418C18.6855 4.90651 19.3952 5.61621 20.2676 5.61621C21.1399 5.61621 21.8496 4.90651 21.8496 4.03418V3.375H24.3633C25.2356 3.375 25.9453 4.0847 25.9453 4.95703V24.9958C25.9453 25.5193 25.5194 25.9453 24.9958 25.9453C24.4722 25.9453 24.0462 25.5193 24.0462 24.9958V23.6316C24.0462 23.3403 23.8101 23.1042 23.5189 23.1042H17.3848C17.0936 23.1042 16.8574 23.3403 16.8574 23.6316C16.8574 23.9228 17.0936 24.1589 17.3848 24.1589H22.9916V24.9958C22.9916 25.3391 23.0785 25.6625 23.2312 25.9453H2.00391C1.48052 25.9453 1.05469 25.5195 1.05469 24.9961V24.1589H12.858C13.1492 24.1589 13.3853 23.9228 13.3853 23.6316C13.3853 23.3403 13.1492 23.1042 12.858 23.1042H7.58895C8.51043 22.3106 9.09557 21.1368 9.09557 19.8281C9.09557 17.4437 7.15574 15.5039 4.77135 15.5039C2.38697 15.5039 0.447135 17.4437 0.447135 19.8281C0.447135 21.1368 1.03228 22.3106 1.95376 23.1042H0.527344C0.236145 23.1042 0 23.3403 0 23.6316V24.9961C0 26.101 0.898963 27 2.00391 27H24.9958C26.1009 27 27 26.1009 27 24.9958V4.95703C27 3.50314 25.8172 2.32031 24.3633 2.32031ZM8.77147 4.03418C8.77147 4.32496 8.5349 4.56152 8.24412 4.56152C7.95335 4.56152 7.71678 4.32496 7.71678 4.03418V1.58203C7.71678 1.29125 7.95335 1.05469 8.24412 1.05469C8.5349 1.05469 8.77147 1.29125 8.77147 1.58203V4.03418ZM20.7949 4.03418C20.7949 4.32496 20.5583 4.56152 20.2676 4.56152C19.9768 4.56152 19.7402 4.32496 19.7402 4.03418V1.58203C19.7402 1.29125 19.9768 1.05469 20.2676 1.05469C20.5583 1.05469 20.7949 1.29125 20.7949 1.58203V4.03418ZM1.50182 19.8281C1.50182 18.0253 2.96852 16.5586 4.77135 16.5586C6.57418 16.5586 8.04088 18.0253 8.04088 19.8281C8.04088 21.631 6.57418 23.0977 4.77135 23.0977C2.96852 23.0977 1.50182 21.631 1.50182 19.8281Z" fill="#ffffff"/>
<path d="M24.695 6.85178C24.597 6.75369 24.461 6.69727 24.3223 6.69727C24.1835 6.69727 24.0475 6.75369 23.9494 6.85178C23.8513 6.94986 23.7949 7.08592 23.7949 7.22461C23.7949 7.3633 23.8513 7.49936 23.9494 7.59744C24.0476 7.69553 24.1835 7.75195 24.3223 7.75195C24.461 7.75195 24.597 7.69553 24.695 7.59744C24.7931 7.49936 24.8496 7.3633 24.8496 7.22461C24.8496 7.08592 24.7932 6.94986 24.695 6.85178Z" fill="#ffffff"/>
<path d="M15.7497 23.2585C15.6517 23.1604 15.5156 23.1045 15.377 23.1045C15.2383 23.1045 15.1022 23.1604 15.0041 23.2585C14.906 23.3571 14.8496 23.4926 14.8496 23.6313C14.8496 23.7705 14.906 23.9061 15.0041 24.0047C15.1022 24.1028 15.2383 24.1587 15.377 24.1587C15.5156 24.1587 15.6517 24.1028 15.7497 24.0047C15.8478 23.9061 15.9043 23.77 15.9043 23.6313C15.9043 23.4926 15.8479 23.3571 15.7497 23.2585Z" fill="#ffffff"/>
<path d="M11.9316 16.0312C10.8267 16.0312 9.92773 16.9302 9.92773 18.0352C9.92773 19.1401 10.8267 20.0391 11.9316 20.0391C13.0366 20.0391 13.9355 19.1401 13.9355 18.0352C13.9355 16.9302 13.0366 16.0312 11.9316 16.0312ZM11.9316 18.9844C11.4083 18.9844 10.9824 18.5585 10.9824 18.0352C10.9824 17.5118 11.4083 17.0859 11.9316 17.0859C12.455 17.0859 12.8809 17.5118 12.8809 18.0352C12.8809 18.5585 12.455 18.9844 11.9316 18.9844Z" fill="#ffffff"/>
<path d="M16.8516 16.0312C15.7466 16.0312 14.8477 16.9302 14.8477 18.0352C14.8477 19.1401 15.7466 20.0391 16.8516 20.0391C17.9565 20.0391 18.8555 19.1401 18.8555 18.0352C18.8555 16.9302 17.9565 16.0312 16.8516 16.0312ZM16.8516 18.9844C16.3282 18.9844 15.9023 18.5585 15.9023 18.0352C15.9023 17.5118 16.3282 17.0859 16.8516 17.0859C17.375 17.0859 17.8008 17.5118 17.8008 18.0352C17.8008 18.5585 17.375 18.9844 16.8516 18.9844Z" fill="#ffffff"/>
<path d="M21.7754 16.0312C20.6704 16.0312 19.7715 16.9302 19.7715 18.0352C19.7715 19.1401 20.6704 20.0391 21.7754 20.0391C22.8803 20.0391 23.7793 19.1401 23.7793 18.0352C23.7793 16.9302 22.8803 16.0312 21.7754 16.0312ZM21.7754 18.9844C21.252 18.9844 20.8262 18.5585 20.8262 18.0352C20.8262 17.5118 21.252 17.0859 21.7754 17.0859C22.2988 17.0859 22.7246 17.5118 22.7246 18.0352C22.7246 18.5585 22.2988 18.9844 21.7754 18.9844Z" fill="#ffffff"/>
<path d="M7.00977 10.5469C5.90482 10.5469 5.00586 11.4458 5.00586 12.5508C5.00586 13.6557 5.90482 14.5547 7.00977 14.5547C8.11471 14.5547 9.01367 13.6557 9.01367 12.5508C9.01367 11.4458 8.11471 10.5469 7.00977 10.5469ZM7.00977 13.5C6.48638 13.5 6.06055 13.0742 6.06055 12.5508C6.06055 12.0274 6.48638 11.6016 7.00977 11.6016C7.53315 11.6016 7.95898 12.0274 7.95898 12.5508C7.95898 13.0742 7.53315 13.5 7.00977 13.5Z" fill="#ffffff"/>
<path d="M16.8516 10.5469C15.7466 10.5469 14.8477 11.4458 14.8477 12.5508C14.8477 13.6557 15.7466 14.5547 16.8516 14.5547C17.9565 14.5547 18.8555 13.6557 18.8555 12.5508C18.8555 11.4458 17.9565 10.5469 16.8516 10.5469ZM16.8516 13.5C16.3282 13.5 15.9023 13.0742 15.9023 12.5508C15.9023 12.0274 16.3282 11.6016 16.8516 11.6016C17.375 11.6016 17.8008 12.0274 17.8008 12.5508C17.8008 13.0742 17.375 13.5 16.8516 13.5Z" fill="#ffffff"/>
<path d="M21.7754 10.5469C20.6704 10.5469 19.7715 11.4458 19.7715 12.5508C19.7715 13.6557 20.6704 14.5547 21.7754 14.5547C22.8803 14.5547 23.7793 13.6557 23.7793 12.5508C23.7793 11.4458 22.8803 10.5469 21.7754 10.5469ZM21.7754 13.5C21.252 13.5 20.8262 13.0742 20.8262 12.5508C20.8262 12.0274 21.252 11.6016 21.7754 11.6016C22.2988 11.6016 22.7246 12.0274 22.7246 12.5508C22.7246 13.0742 22.2988 13.5 21.7754 13.5Z" fill="#ffffff"/>
<path d="M11.9316 10.5469C10.8267 10.5469 9.92773 11.4458 9.92773 12.5508C9.92773 13.6557 10.8267 14.5547 11.9316 14.5547C13.0366 14.5547 13.9355 13.6557 13.9355 12.5508C13.9355 11.4458 13.0366 10.5469 11.9316 10.5469ZM11.9316 13.5C11.4083 13.5 10.9824 13.0742 10.9824 12.5508C10.9824 12.0274 11.4083 11.6016 11.9316 11.6016C12.455 11.6016 12.8809 12.0274 12.8809 12.5508C12.8809 13.0742 12.455 13.5 11.9316 13.5Z" fill="#ffffff"/>
<path d="M6.64953 18.5431C6.44355 18.3372 6.10975 18.3372 5.90371 18.5431L4.18637 20.2605L3.59949 19.6736C3.39351 19.4677 3.0597 19.4677 2.85366 19.6736C2.64774 19.8796 2.64774 20.2135 2.85366 20.4195L3.81348 21.3792C3.91241 21.4781 4.04651 21.5336 4.18637 21.5336C4.32622 21.5336 4.46032 21.4781 4.55925 21.3792L6.64953 19.2889C6.85546 19.083 6.85546 18.749 6.64953 18.5431Z" fill="#ffffff"/>
</svg>
