<svg width="30" height="30" viewBox="0 0 30 30" fill="none" xmlns="http://www.w3.org/2000/svg">
<path d="M29.9073 19.2104C29.8135 19.0784 29.6616 18.9999 29.4998 18.9999H24.9998V4.49997C24.9998 4.22385 24.7759 3.99997 24.4998 3.99997H22.9998V2.49998C22.9998 2.22386 22.7759 1.99999 22.4998 1.99999H10.4999C10.4999 0.895432 9.60444 0 8.49989 0C7.39533 0 6.4999 0.895432 6.4999 1.99999H4.99991C4.72378 1.99999 4.49991 2.22386 4.49991 2.49998V18.9999H0.499934C0.223811 18.9999 0 19.2238 0 19.4999C0 19.5842 0.0213124 19.6671 0.0619371 19.7409L5.5619 29.7408C5.64978 29.9006 5.81759 29.9998 5.9999 29.9998H25.9998C26.2138 30.0059 26.4057 29.8685 26.4688 29.6638H26.4718L29.9718 19.6639C30.0248 19.5112 30.0008 19.3422 29.9073 19.2104ZM22.9998 22.9998V4.99997H23.9998V24.8263L22.9953 22.9998H22.9998ZM8.49989 0.999993C9.05219 0.999993 9.49988 1.44768 9.49988 1.99999H7.49989C7.49989 1.44768 7.94764 0.999993 8.49989 0.999993ZM5.4999 2.99998H9.49988V4.49997C9.49988 4.77609 9.27601 4.99997 8.99988 4.99997C8.72376 4.99997 8.49989 4.77609 8.49989 4.49997V3.99997H7.49989V4.49997C7.49989 5.3284 8.17145 5.99996 8.99988 5.99996C9.82831 5.99996 10.4999 5.3284 10.4999 4.49997V2.99998H21.9998V21.1899L20.9378 19.2589C20.8499 19.0991 20.6821 18.9999 20.4998 18.9999H5.4999V2.99998ZM6.2954 28.9998L1.34543 19.9999H20.2043L25.1543 28.9998H6.2954ZM25.8998 28.2773L24.9998 26.6443V19.9999H28.7948L25.8998 28.2773Z" fill="#ffffff"/>
<path d="M25 2H24V2.99999H25C25.5523 2.99999 26 3.44768 26 3.99999V10.9999H27V3.99999C27 2.89543 26.1045 2 25 2Z" fill="#ffffff"/>
<path d="M27 12H26V13H27V12Z" fill="#ffffff"/>
<path d="M3.49999 10H2.5V17H3.49999V10Z" fill="#ffffff"/>
<path d="M3.49999 8H2.5V9H3.49999V8Z" fill="#ffffff"/>
<path d="M17 6.49999H15.5V5C15.5 4.72387 15.2761 4.5 15 4.5H13C12.7239 4.5 12.5 4.72387 12.5 5V6.49999H11C10.7239 6.49999 10.5 6.72386 10.5 6.99998V8.99997C10.5 9.2761 10.7239 9.49997 11 9.49997H12.5V11C12.5 11.2761 12.7239 11.5 13 11.5H15C15.2761 11.5 15.5 11.2761 15.5 11V9.49997H17C17.2761 9.49997 17.5 9.2761 17.5 8.99997V6.99998C17.5 6.72386 17.2761 6.49999 17 6.49999ZM16.5 8.49998H15C14.7239 8.49998 14.5 8.72385 14.5 8.99997V10.5H13.5V8.99997C13.5 8.72385 13.2761 8.49998 13 8.49998H11.5V7.49998H13C13.2761 7.49998 13.5 7.27611 13.5 6.99998V5.49999H14.5V6.99998C14.5 7.27611 14.7239 7.49998 15 7.49998H16.5V8.49998Z" fill="#ffffff"/>
<path d="M9 12.5H8V13.5H9V12.5Z" fill="#ffffff"/>
<path d="M20.4999 12.5H10V13.5H20.4999V12.5Z" fill="#ffffff"/>
<path d="M20.4999 14.5H7V15.5H20.4999V14.5Z" fill="#ffffff"/>
<path d="M18.4999 16.5H7V17.5H18.4999V16.5Z" fill="#ffffff"/>
<path d="M20.9426 4.5H19.9141V5.49999H20.9426V4.5Z" fill="#ffffff"/>
<path d="M21 6.5H20V7.49999H21V6.5Z" fill="#ffffff"/>
</svg>
