<svg width="30" height="30" viewBox="0 0 30 30" fill="none" xmlns="http://www.w3.org/2000/svg">
<g clip-path="url(#clip0)">
<path d="M24.1459 23.3451C22.9618 21.9349 21.6196 20.3366 20.0953 20.3366C19.5388 20.3366 19.0023 20.5532 18.5004 20.9809C18.1375 21.2913 17.8328 21.6248 17.5381 21.9474C17.2658 22.2454 17.0087 22.5268 16.7329 22.7588C16.7003 22.7864 16.6454 22.8003 16.57 22.8003C15.8944 22.8003 14.4133 21.8051 12.7969 20.2649C11.18 18.7243 9.84226 17.0399 9.38877 15.9735C9.19372 15.5149 9.20603 15.2676 9.27586 15.1953C9.45319 15.0115 9.67879 14.8082 9.91761 14.5929C10.962 13.6517 12.3922 12.3626 11.5666 10.9295C11.553 10.9057 11.5365 10.8837 11.5176 10.8638C10.3886 9.67745 9.25619 8.49038 8.12378 7.30399C8.11418 7.29393 8.104 7.28451 8.09324 7.27565C7.59086 6.86272 7.0745 6.65332 6.55865 6.65332C5.33652 6.65332 4.33221 7.82344 3.52468 8.76438C2.01914 10.5279 1.84232 10.89 2.0957 13.2237C2.48074 16.786 4.90051 20.9914 8.56847 24.4733C12.2139 27.9338 16.3487 29.9998 19.6291 29.9998C20.3164 29.9998 20.9691 29.9094 21.5692 29.731C22.6775 29.401 24.8925 27.4584 25.3273 25.8671C25.5335 25.1123 25.2857 24.6406 25.0411 24.3772C24.7576 24.0734 24.4605 23.7197 24.1459 23.3451ZM24.6614 25.6856C24.3067 26.9839 22.2947 28.7953 21.3722 29.0701C20.8362 29.2294 20.2497 29.3102 19.6291 29.3102C16.5212 29.3102 12.5641 27.3151 9.04382 23.9733C5.49084 20.6006 3.14999 16.5543 2.78192 13.1495C2.5512 11.0244 2.65175 10.8496 4.04921 9.21278C4.92714 8.18987 5.72196 7.34314 6.55865 7.34314C6.91039 7.34314 7.26397 7.49115 7.63906 7.79556C8.75622 8.96602 9.87344 10.1371 10.9873 11.3075C11.4534 12.1762 10.6077 13.042 9.45532 14.0807C9.20729 14.3042 8.97301 14.5154 8.77894 14.7166C8.46827 15.0386 8.4597 15.5523 8.75357 16.2433C9.24094 17.3893 10.6411 19.1639 12.3206 20.7641C13.1809 21.5838 15.3169 23.4901 16.5701 23.4901C16.813 23.4901 17.0174 23.4215 17.1777 23.2864C17.488 23.0254 17.7599 22.7277 18.048 22.4125C18.3285 22.1053 18.6187 21.7877 18.9488 21.5053C19.327 21.1831 19.7021 21.0264 20.0954 21.0264C21.2978 21.0264 22.5301 22.4938 23.6173 23.7885C23.9378 24.1702 24.2405 24.5307 24.5358 24.8472C24.7201 25.0457 24.7612 25.32 24.6614 25.6856Z" fill="#616161"/>
<path d="M15.0111 5C14.8206 5 14.666 5.15445 14.666 5.34488C14.666 5.53531 14.8206 5.68976 15.0111 5.68976C21.2919 5.68976 26.4017 10.7978 26.4017 17.0765C26.4017 17.2669 26.5562 17.4214 26.7468 17.4214C26.9374 17.4214 27.0919 17.2669 27.0919 17.0765C27.0919 10.4175 21.6725 5 15.0111 5Z" fill="#616161"/>
<path d="M15.0111 8.84601C19.5515 8.84601 23.2452 12.5383 23.2452 17.0768C23.2452 17.2672 23.3997 17.4217 23.5903 17.4217C23.7809 17.4217 23.9354 17.2672 23.9354 17.0768C23.9354 12.158 19.932 8.15625 15.0111 8.15625C14.8206 8.15625 14.666 8.3107 14.666 8.50113C14.666 8.69156 14.8205 8.84601 15.0111 8.84601Z" fill="#616161"/>
<path d="M15.0111 11.9974C17.812 11.9974 20.0907 14.2756 20.0907 17.0759C20.0907 17.2664 20.2452 17.4208 20.4358 17.4208C20.6263 17.4208 20.7809 17.2664 20.7809 17.0759C20.7809 13.8953 18.1926 11.3076 15.0111 11.3076C14.8206 11.3076 14.666 11.4621 14.666 11.6525C14.666 11.8429 14.8205 11.9974 15.0111 11.9974Z" fill="#616161"/>
</g>
<defs>
<clipPath id="clip0">
<rect width="30" height="30" fill="white"/>
</clipPath>
</defs>
</svg>
