<svg width="28" height="28" viewBox="0 0 28 28" fill="none" xmlns="http://www.w3.org/2000/svg">
<path d="M26.3997 26.5663L25.1611 19.3145C25.0276 18.5332 24.4733 17.9056 23.7144 17.6766L20.3735 16.6686C20.3043 15.8519 19.9694 15.0814 19.4122 14.4715C18.9664 13.9837 18.4057 13.6285 17.7877 13.4325C17.8935 13.3151 17.9915 13.1982 18.0815 13.0838C18.876 12.0733 19.3014 10.9601 19.4096 10.2004H19.6674C20.3377 10.2004 20.8831 9.65508 20.8831 8.98466V8.36145C20.8831 7.91405 20.6315 7.50865 20.253 7.29827V5.79961C20.253 5.57315 20.0694 5.38956 19.8429 5.38956C19.6165 5.38956 19.4329 5.57309 19.4329 5.79961V7.48202C19.2733 7.50974 19.0827 7.55765 18.8878 7.63973C18.8679 7.64701 18.8484 7.65543 18.8301 7.66555C18.786 7.68562 18.742 7.70678 18.698 7.73063V4.4263C18.698 3.5134 17.9554 2.77074 17.0425 2.77074H15.9107C15.5204 2.77074 15.139 2.90675 14.8368 3.15383L14.7258 3.24461C14.5218 3.41141 14.2643 3.50328 14.0008 3.50328C13.7372 3.50328 13.4797 3.41141 13.2757 3.24461L13.1647 3.15383C12.8625 2.9068 12.4812 2.77074 12.0908 2.77074H10.959C10.0461 2.77074 9.3034 3.5134 9.3034 4.4263V7.73063C9.25948 7.70678 9.2154 7.68562 9.17138 7.66555C9.153 7.65543 9.13365 7.64701 9.11368 7.63973C8.91878 7.55765 8.72819 7.50974 8.56856 7.48202V3.22793C8.56856 1.90023 9.64875 0.820039 10.9764 0.820039H17.0249C18.3527 0.820039 19.4328 1.90023 19.4328 3.22793V3.87248C19.4328 4.09894 19.6164 4.28252 19.8428 4.28252C20.0692 4.28252 20.2529 4.09899 20.2529 3.87248V3.22793C20.2529 1.44807 18.8048 0 17.0249 0H10.9764C9.19654 0 7.74852 1.44807 7.74852 3.22793V7.29832C7.37003 7.5087 7.11836 7.91405 7.11836 8.3615V8.98472C7.11836 9.65513 7.66375 10.2005 8.33411 10.2005H8.59186C8.70008 10.9601 9.1255 12.0734 9.92 13.0838C10.0098 13.1981 10.1078 13.315 10.2135 13.4322C8.79272 13.8835 7.75661 15.1609 7.62804 16.6686L4.28697 17.6766C3.52807 17.9056 2.97376 18.5332 2.84032 19.3145L2.3373 22.2594C2.29919 22.4826 2.44925 22.6944 2.67243 22.7326C2.89555 22.7708 3.10747 22.6207 3.14564 22.3974L3.64865 19.4526C3.72937 18.9798 4.06472 18.6002 4.52382 18.4617L7.61393 17.5294V18.3404C6.90562 18.4708 6.30291 18.9574 6.05469 19.6315C5.98879 19.8104 5.94783 19.9978 5.93295 20.1883L5.6343 24.0216C5.61177 24.3104 5.71169 24.5979 5.90829 24.8104C6.10489 25.0229 6.38374 25.1449 6.67331 25.1449H7.18453C7.41099 25.1449 7.59458 24.9613 7.59458 24.7348C7.59458 24.5083 7.41099 24.3248 7.18453 24.3248H6.67331C6.61157 24.3248 6.55218 24.2989 6.51023 24.2535C6.46834 24.2082 6.44707 24.147 6.45188 24.0855L6.75053 20.2521C6.75955 20.1366 6.78433 20.0232 6.82425 19.9148C6.99695 19.4459 7.46333 19.1283 7.98488 19.1247L8.05242 19.1242C8.05559 19.1241 8.05871 19.1241 8.06183 19.1241C8.56872 19.1241 9.01744 19.4115 9.20671 19.8584C9.25981 19.9837 9.29208 20.1161 9.30268 20.2521L9.60144 24.0855C9.6062 24.147 9.58493 24.2082 9.54304 24.2536C9.50115 24.2989 9.4417 24.3248 9.37996 24.3248H8.86874C8.64228 24.3248 8.45869 24.5084 8.45869 24.7348C8.45869 24.9613 8.64228 25.1449 8.86874 25.1449H9.37996C9.66953 25.1449 9.94843 25.023 10.145 24.8104C10.3416 24.5978 10.4416 24.3103 10.419 24.0217L10.1203 20.1883C10.1028 19.964 10.0494 19.7453 9.96178 19.5384C9.69168 18.9009 9.11412 18.4577 8.43392 18.3378V17.282L9.84343 16.8567C9.97168 17.1268 10.2258 17.7104 10.7292 18.9686C11.2365 20.2381 11.8671 21.8654 12.4719 23.4473C12.4763 23.4606 12.4812 23.4735 12.4868 23.4862C12.8904 24.5423 13.2819 25.5766 13.6168 26.4689C13.6768 26.6289 13.8298 26.7349 14.0007 26.7349C14.1716 26.7349 14.3245 26.6289 14.3846 26.4689C14.7194 25.5766 15.1109 24.5423 15.5145 23.4862C15.5202 23.4735 15.5251 23.4605 15.5294 23.4473C16.1338 21.8663 16.764 20.2401 17.2711 18.971C17.7752 17.7111 18.0296 17.127 18.1578 16.8567L19.5674 17.282V19.7038C18.5908 19.8935 17.851 20.7548 17.851 21.7861C17.851 22.956 18.8027 23.9077 19.9726 23.9077C21.1425 23.9077 22.0942 22.956 22.0942 21.7861C22.0942 20.7582 21.3593 19.899 20.3874 19.7055V17.5294L23.4776 18.4618C23.9367 18.6003 24.272 18.9799 24.3527 19.4526L25.5914 26.7043C25.612 26.8246 25.58 26.9422 25.5013 27.0354C25.4226 27.1286 25.3121 27.18 25.1901 27.18H2.81122C2.68922 27.18 2.57875 27.1287 2.50005 27.0354C2.42141 26.9422 2.38936 26.8247 2.40993 26.7043L2.81872 24.3111C2.85683 24.0879 2.70677 23.8761 2.48359 23.838C2.26047 23.7997 2.04855 23.9499 2.01038 24.1731L1.60159 26.5663C1.54061 26.9235 1.63965 27.2873 1.87328 27.5643C2.10701 27.8412 2.44886 28 2.81122 28H25.1901C25.5525 28 25.8944 27.8412 26.1281 27.5642C26.3617 27.2872 26.4607 26.9235 26.3997 26.5663ZM19.4378 8.31737C19.6562 8.2629 19.8316 8.26388 19.8336 8.26394C19.9042 8.26487 19.9729 8.24835 20.034 8.21636C20.0522 8.2618 20.063 8.31064 20.063 8.3615V8.98472C20.063 9.20292 19.8855 9.38044 19.6673 9.38044H19.4378V8.31737ZM8.56358 9.38044H8.33406C8.11586 9.38044 7.93834 9.20292 7.93834 8.98472V8.3615C7.93834 8.31064 7.94917 8.2618 7.96738 8.21641C8.02836 8.24841 8.09704 8.26492 8.16776 8.26394C8.17087 8.26448 8.34576 8.2635 8.56358 8.31759V9.38044ZM9.38362 9.84019V8.76296C9.50787 8.8002 9.64377 8.79512 9.76922 8.74278C9.98442 8.65298 10.1234 8.44446 10.1234 8.21144V4.4263C10.1234 3.96561 10.4983 3.59078 10.959 3.59078H12.0907C12.2924 3.59078 12.4894 3.66105 12.6456 3.7887L12.7566 3.87948C13.1066 4.16571 13.5485 4.32327 14.0007 4.32327C14.4529 4.32327 14.8947 4.16566 15.2448 3.87948L15.3558 3.7887C15.5118 3.66105 15.7089 3.59078 15.9106 3.59078H17.0424C17.5031 3.59078 17.8779 3.96561 17.8779 4.4263V8.21149C17.8779 8.44446 18.0169 8.65304 18.2321 8.74284C18.304 8.77281 18.3792 8.78735 18.4538 8.78735C18.5094 8.78735 18.5646 8.7792 18.6177 8.76334V9.84019C18.6177 10.4389 18.2038 11.6014 17.4368 12.5769C17.1827 12.9001 16.8561 13.2472 16.454 13.5506C16.4413 13.5592 16.4291 13.5684 16.4174 13.5782C15.7945 14.0388 14.9935 14.3917 14.0007 14.3917C13.0079 14.3917 12.2069 14.0388 11.5839 13.5782C11.5722 13.5684 11.5601 13.5592 11.5474 13.5507C11.1453 13.2472 10.8187 12.9001 10.5645 12.5769C9.79755 11.6015 9.38362 10.4389 9.38362 9.84019ZM16.6869 16.4648L14.0007 18.4726L11.3144 16.4648C11.5808 16.1262 11.73 15.6916 11.73 15.3038V14.6428C12.3617 14.9825 13.1155 15.2118 14.0007 15.2118C14.8858 15.2118 15.6397 14.9825 16.2713 14.6428V15.3038C16.2713 15.6916 16.4205 16.1262 16.6869 16.4648ZM10.6301 16.0071C10.4111 15.9237 10.1684 15.91 9.93876 15.9723C9.92869 15.9747 9.91885 15.9773 9.90928 15.9802L8.49271 16.4076C8.73229 15.2295 9.68889 14.2919 10.91 14.1102V15.3038C10.91 15.561 10.7952 15.8269 10.6301 16.0071ZM11.743 19.2986C11.7422 19.2967 11.7414 19.2948 11.7407 19.2929C11.7199 19.2404 11.6994 19.1885 11.6791 19.1373C11.6754 19.128 11.6717 19.1187 11.6681 19.1096C11.6482 19.0594 11.6284 19.0096 11.609 18.9607C11.6076 18.9573 11.6062 18.9539 11.6049 18.9504C11.5441 18.7976 11.4855 18.6511 11.4292 18.5107C11.4251 18.5006 11.421 18.4902 11.4169 18.4801C11.4007 18.4399 11.3848 18.4002 11.369 18.3611C11.3632 18.3467 11.3575 18.3325 11.3517 18.3182C11.3364 18.2803 11.3212 18.2425 11.3062 18.2056C11.3017 18.1946 11.2974 18.1839 11.2929 18.1729C11.2657 18.1058 11.2392 18.0405 11.2132 17.9768C11.2062 17.9595 11.1991 17.942 11.1921 17.925C11.182 17.9001 11.1721 17.876 11.1621 17.8516C11.1514 17.8254 11.1407 17.7994 11.1302 17.7738C11.1262 17.7642 11.1221 17.7541 11.1182 17.7446C11.115 17.7369 11.1121 17.7299 11.109 17.7222C11.0617 17.6072 11.0166 17.4987 10.9739 17.3967C10.9736 17.3959 10.9732 17.3951 10.9729 17.3943C10.9501 17.34 10.9279 17.2869 10.9065 17.2364C10.8954 17.2102 10.8845 17.1845 10.8737 17.1592L13.184 18.8859L12.2187 19.296C12.217 19.2967 12.2152 19.2974 12.2135 19.2982L11.8105 19.4694C11.7876 19.4116 11.7653 19.3549 11.743 19.2986ZM12.7213 21.8092C12.6403 21.599 12.5587 21.3877 12.477 21.1765C12.3491 20.8463 12.227 20.5323 12.1101 20.2331L12.2631 20.1681L12.8883 20.8948L12.7213 21.8092ZM14.0086 25.1418C13.9968 25.1174 13.9828 25.0943 13.9667 25.0729C13.7814 24.5832 13.5462 23.9635 13.286 23.2817L13.6688 21.1858H14.3326L14.7154 23.2817C14.4427 23.996 14.1977 24.6419 14.0086 25.1418ZM14.4863 20.3658H13.515L13.0553 19.8315L14.0007 19.43L14.946 19.8315L14.4863 20.3658ZM15.5244 21.1765C15.4426 21.3877 15.361 21.599 15.28 21.8092L15.113 20.8948L15.7382 20.168L15.8912 20.2331C15.7743 20.5322 15.6522 20.8463 15.5244 21.1765ZM17.0949 17.2364C17.0746 17.2843 17.0535 17.3346 17.032 17.3859C17.0292 17.3925 17.0264 17.3993 17.0236 17.406C17.0023 17.4569 16.9806 17.5088 16.9582 17.5629C16.9567 17.5664 16.9552 17.5702 16.9537 17.5738C16.9344 17.6205 16.9145 17.6686 16.8943 17.7177C16.8906 17.7268 16.887 17.7353 16.8832 17.7446C16.8788 17.7556 16.8739 17.7672 16.8694 17.7783C16.8604 17.8002 16.8513 17.8225 16.8421 17.8448C16.8309 17.8723 16.8196 17.8997 16.8081 17.9279C16.8044 17.9368 16.8007 17.9462 16.7969 17.9552C16.7684 18.0252 16.7391 18.0972 16.7091 18.1713C16.7044 18.1829 16.6998 18.1943 16.6951 18.206C16.6802 18.2426 16.6652 18.28 16.65 18.3175C16.6441 18.3322 16.6381 18.3469 16.6322 18.3618C16.6165 18.4005 16.6007 18.4398 16.5848 18.4796C16.5803 18.4907 16.5757 18.5021 16.5713 18.5133C16.5156 18.6517 16.4579 18.7961 16.3981 18.9466C16.3961 18.9516 16.3941 18.9565 16.3922 18.9615C16.3728 19.0101 16.3532 19.0596 16.3334 19.1094C16.3298 19.1187 16.326 19.128 16.3223 19.1373C16.3019 19.1889 16.2812 19.2409 16.2604 19.2938C16.26 19.2948 16.2596 19.2958 16.2592 19.2967C16.2367 19.3537 16.214 19.411 16.191 19.4695L15.7875 19.2981C15.7861 19.2975 15.7847 19.2969 15.7833 19.2963L14.8174 18.886L17.1277 17.1593C17.1169 17.1845 17.1059 17.2102 17.0949 17.2364ZM18.0921 15.9802C18.092 15.9802 18.0919 15.9802 18.0918 15.9802C18.0915 15.9801 18.0911 15.98 18.0908 15.9799C17.8529 15.9085 17.5992 15.9203 17.3713 16.0071C17.2062 15.8269 17.0914 15.561 17.0914 15.3038V14.1096C18.3202 14.2908 19.2739 15.2196 19.5103 16.4081L18.0921 15.9802ZM21.2742 21.7861C21.2742 22.5039 20.6903 23.0877 19.9726 23.0877C19.2549 23.0877 18.671 22.5039 18.671 21.7861C18.671 21.0684 19.2549 20.4846 19.9726 20.4846C20.6903 20.4846 21.2742 21.0684 21.2742 21.7861Z" fill="#ffffff"/>
</svg>
