<?xml version="1.0" encoding="utf-8"?>
<!-- Generator: Adobe Illustrator 24.1.1, SVG Export Plug-In . SVG Version: 6.00 Build 0)  -->
<svg version="1.1" id="Layer_1" xmlns="http://www.w3.org/2000/svg" xmlns:xlink="http://www.w3.org/1999/xlink" x="0px" y="0px"
	 viewBox="0 0 47 55" style="enable-background:new 0 0 47 55;" xml:space="preserve">
<style type="text/css">
	.st0{fill:#004084;}
</style>
<path class="st0" d="M46.6,18.2C45.1,5.2,33.8-1.1,21.6,0.1C15.8,0.7,10.6,2.9,7.1,7.8c-2.5,3.5-3.5,8.1-3.3,12.3
	c0.1,1.7,1.3,4,1,5.5c-0.6,2.9-3.6,5.2-4.6,8c-0.7,2.1,1.2,2.9,2.8,3.4c0.4,0.1,0.9,0.3,1.3,0.5c-0.1,0.1-0.1,0.3-0.2,0.7
	c-0.2,0.8,0.2,1.4,0.7,1.9c-0.3,1.3,0.4,2.3,1.8,3c-0.1,3.1,0.6,5.9,4.1,6.6c3.7,0.7,8.4-0.7,9.8,4c0.6,1.9,3.6,1.1,3-0.8
	c-0.7-2.4-2.6-4.6-4.9-5.5c-2.1-0.8-4.2-0.6-6.3-0.7c-2.9-0.1-2.6-2.3-2.5-4.7c0.1-0.7-0.5-1.3-1.2-1.5c-0.2-0.1-0.4-0.1-0.5-0.2
	c0,0,0,0,0,0c0.5-0.9,0.2-1.8-0.7-2.3c0.4-1.2,0.7-2-0.8-3c-0.8-0.5-1.9-0.8-2.8-1.1c-0.2-0.1-0.3-0.1-0.4,0c0-0.1,0.1-0.1,0.1-0.2
	c0.3-0.6,0.7-1.3,1.1-1.8C5.7,30.2,8,27.9,8,25.6c0-1.8-0.9-3.3-1-5.1C6.6,16.8,7.5,13,9.4,9.9c3.2-5.3,9.5-6.7,15.2-6.8
	C30,2.9,35.2,4.6,39,8.3c4.8,4.8,5,12.2,4.4,18.5c-0.4,4.4-2.3,8.1-3.6,12.2c-1.6,4.9-0.5,10.1,0.8,14.9c0.5,2,3.5,1.1,3-0.8
	C42,47.1,41.7,42.3,44,36.6C46.4,30.8,47.3,24.5,46.6,18.2z"/>
<path class="st0" d="M41.2,20.5c0.2-3.8-2.7-6.5-3.7-7.4c-1.6-4.5-6.8-4.9-8.3-4.9c-0.1,0-0.2,0-0.3,0c-2-0.7-3.8-1-5.5-1
	c-3.9,0-5.9,1.8-6.6,2.7c-2.1,0.7-3.6,1.9-4.3,3.5c-0.8,1.7-0.5,3.5-0.3,4.3c-0.7,1.9-0.6,3.4,0.2,4.6c1.1,1.6,3.1,2,4.4,2
	c0.7,3,2.9,3.7,4.7,3.7c0.7,0,1.3-0.1,2-0.2c0.3,0.7,0.9,1.6,1.9,2.3c0.4,0.3,0.8,0.5,1.2,0.7c1.6,1.5,5,5.4,3.7,10.1
	c-1.4,4.9-0.6,9.2,0.2,11.8c0.4,1.5,1,2.3,2.1,1.9c1.2-0.4,0.8-1.3,0.4-2.6c-0.7-2.3-1.4-6.1-0.2-10.5c1.1-4-0.3-7.5-2-9.9
	c0.2,0,0.3,0,0.5,0c1,0,2.2-0.1,3.4-0.3c1.4-0.2,2.1-0.9,2.5-1.4c0.4-0.6,0.6-1.3,0.6-2.2c1.8-0.6,3-1.6,3.6-2.9
	C42.2,23.3,41.6,21.3,41.2,20.5z M34.9,28.8c-0.1,0.2-0.4,0.3-0.8,0.4c-3.2,0.5-5.7,0.2-7.2-0.8c-0.4-0.3-0.7-0.6-0.9-0.9
	c0.1,0,0.2,0,0.3-0.1c0.7-0.1,1.4-0.1,2.1-0.1c2.8,0,5.4,0.6,6.6,1C35.1,28.4,35,28.6,34.9,28.8z M39,24.1c-0.4,0.8-1.2,1.4-2.6,1.7
	c-1.1-0.3-4.3-1.2-7.9-1.2c-0.9,0-1.7,0.1-2.5,0.2c-0.5,0.1-1.1,0.2-1.7,0.4c-0.9,0.2-2,0.5-2.9,0.5c-1,0-2-0.2-2.3-2.3
	c0.8-2.7,5.6-2.9,8.3-2.7c1.2,0.1,1.9-0.3,2.1-1.2c0.1-0.9-0.6-1.3-1.8-1.4c-3.2-0.2-9.1,0-10.8,3.9c-1.2-0.1-2.1-0.4-2.4-0.9
	c-0.4-0.7-0.1-1.8,0.2-2.7l0.2-0.5l-0.2-0.5c0,0-0.6-1.4,0-2.8c0.5-1,1.5-1.8,3.2-2.3l0.5-0.1l0.3-0.4c0,0,1.2-1.9,4.7-1.9
	c1.4,0,3.1,0.3,4.9,0.9l0.3,0.1l0.3,0c0,0,0.2,0,0.4,0c1.5,0,5.1,0.3,6,3.4l0.1,0.4l0.4,0.3c0,0,3.3,2.4,3,5.7l0,0.4l0.2,0.3
	C38.8,21.4,39.5,22.9,39,24.1z"/>
</svg>
