<svg width="36" height="55" viewBox="0 0 36 55" fill="none" xmlns="http://www.w3.org/2000/svg">
<path d="M29.3669 48.3249C25.8262 47.9186 24.0849 46.6997 23.6205 45.7129C22.5177 43.217 22.7499 38.7476 23.0401 33.1173C23.1562 30.8536 23.2723 28.2416 23.3303 25.5135C23.4464 20.4056 23.8527 16.7488 24.201 14.6012C24.4912 12.6857 23.7366 10.7122 22.2275 9.4933L10.5025 0.206214C10.0962 -0.142051 9.45772 -0.0259628 9.16749 0.380347C8.81923 0.786657 8.93532 1.42514 9.34163 1.71537L21.0666 11.0024C22.0533 11.8151 22.5757 13.034 22.3435 14.311C21.9953 16.5747 21.5309 20.3476 21.4148 25.5135C21.3568 28.1835 21.2407 30.7375 21.1246 33.0593C20.8344 38.9798 20.6022 43.6233 21.8792 46.5255C22.7499 48.499 25.4199 49.8341 29.1347 50.2984C32.4432 50.7047 33.9524 51.9817 34.0104 52.33C34.0104 52.33 33.1398 53.6069 26.5808 53.2006C22.924 52.9684 21.5309 53.0265 19.5574 53.0845C18.3965 53.1426 16.9454 53.2006 14.6817 53.2006C13.9271 53.2006 12.9984 53.0845 12.5921 52.5621C11.9536 51.6915 12.6501 49.5438 13.2306 47.8606C13.5789 46.8158 13.9271 45.829 14.0432 44.9583C14.5076 41.3016 13.9271 38.3993 13.3467 35.381C12.8243 32.8271 12.3019 29.9249 12.2438 26.094C12.1858 21.7406 12.5341 19.593 12.9984 16.6908L13.1145 15.9943C13.1725 15.5879 12.9404 15.1236 12.5341 14.9495C7.13594 12.6277 1.62174 7.98415 1.5637 7.9261C1.15739 7.57784 0.576943 7.63588 0.228678 8.04219C-0.119588 8.4485 -0.0615433 9.02894 0.344767 9.37721C0.576944 9.55134 5.74288 13.8466 11.141 16.3425C10.6766 19.3028 10.3284 21.4504 10.3864 25.9779C10.4445 29.9829 11.0249 32.9432 11.5473 35.5552C12.1278 38.5735 12.6501 41.1274 12.2438 44.552C12.1858 45.1905 11.8375 46.1192 11.5473 47.0479C10.7927 49.3117 9.98011 51.8076 11.141 53.4908C11.8375 54.4196 13.0565 54.942 14.7397 54.942C17.0615 54.942 18.4546 54.8839 19.6735 54.8259C21.647 54.7678 22.924 54.7098 26.4647 54.942C27.3353 55 28.148 55 28.9025 55C33.372 55 35.7518 54.0713 35.8679 52.2719C36.1 50.5306 33.3139 48.7893 29.3669 48.3249Z" fill="#004084"/>
<path d="M17.1776 46.2353C16.7713 45.9451 16.1328 46.0031 15.8426 46.4675C15.3782 47.164 15.146 47.9766 15.2621 48.7893C15.3782 49.6019 15.8426 50.3565 16.5391 50.8208C17.0615 51.2271 17.7 51.4013 18.3965 51.4013C18.5707 51.4013 18.7448 51.4013 18.9189 51.3432C19.4413 51.2852 19.7896 50.7628 19.7315 50.2404C19.6735 49.718 19.1511 49.3697 18.6287 49.4278C18.2804 49.4858 17.9902 49.4278 17.7 49.1956C17.4098 49.0214 17.2356 48.7312 17.2356 48.383C17.1776 48.0347 17.2356 47.7445 17.4678 47.4542C17.7 47.164 17.6419 46.5255 17.1776 46.2353Z" fill="#004084"/>
<path d="M25.0136 7.636C25.2458 7.636 25.478 7.57796 25.6521 7.40383L28.0319 5.31423C28.3802 4.90792 28.4383 4.32748 28.09 3.92117C27.7417 3.51486 27.1032 3.51486 26.755 3.86313L24.3752 5.95272C23.9688 6.30099 23.9688 6.93947 24.3171 7.28774C24.4912 7.51992 24.7234 7.636 25.0136 7.636Z" fill="#004084"/>
<path d="M28.1479 14.5432C27.6255 14.4852 27.1612 14.8915 27.1612 15.4719C27.1031 15.9943 27.5094 16.4587 28.0899 16.4587L31.2243 16.6328H31.2823C31.8047 16.6328 32.211 16.2265 32.211 15.7041C32.269 15.1817 31.8627 14.7174 31.2823 14.7174L28.1479 14.5432Z" fill="#004084"/>
<path d="M26.5227 11.0604C26.6388 11.4667 27.0451 11.6989 27.4515 11.6989C27.5675 11.6989 27.6836 11.6989 27.7417 11.6408L30.7019 10.596C31.2243 10.4219 31.4565 9.89951 31.2824 9.37711C31.1082 8.85472 30.5858 8.62254 30.0634 8.79667L27.1032 9.84147C26.5808 10.0156 26.3486 10.596 26.5227 11.0604Z" fill="#004084"/>
<path d="M29.3669 48.3249C25.8262 47.9186 24.0849 46.6997 23.6205 45.7129C22.5177 43.217 22.7499 38.7476 23.0401 33.1173C23.1562 30.8536 23.2723 28.2416 23.3303 25.5135C23.4464 20.4056 23.8527 16.7488 24.201 14.6012C24.4912 12.6857 23.7366 10.7122 22.2275 9.4933L10.5025 0.206214C10.0962 -0.142051 9.45772 -0.0259628 9.16749 0.380347C8.81923 0.786657 8.93532 1.42514 9.34163 1.71537L21.0666 11.0024C22.0533 11.8151 22.5757 13.034 22.3435 14.311C21.9953 16.5747 21.5309 20.3476 21.4148 25.5135C21.3568 28.1835 21.2407 30.7375 21.1246 33.0593C20.8344 38.9798 20.6022 43.6233 21.8792 46.5255C22.7499 48.499 25.4199 49.8341 29.1347 50.2984C32.4432 50.7047 33.9524 51.9817 34.0104 52.33C34.0104 52.33 33.1398 53.6069 26.5808 53.2006C22.924 52.9684 21.5309 53.0265 19.5574 53.0845C18.3965 53.1426 16.9454 53.2006 14.6817 53.2006C13.9271 53.2006 12.9984 53.0845 12.5921 52.5621C11.9536 51.6915 12.6501 49.5438 13.2306 47.8606C13.5789 46.8158 13.9271 45.829 14.0432 44.9583C14.5076 41.3016 13.9271 38.3993 13.3467 35.381C12.8243 32.8271 12.3019 29.9249 12.2438 26.094C12.1858 21.7406 12.5341 19.593 12.9984 16.6908L13.1145 15.9943C13.1725 15.5879 12.9404 15.1236 12.5341 14.9495C7.13594 12.6277 1.62174 7.98415 1.5637 7.9261C1.15739 7.57784 0.576943 7.63588 0.228678 8.04219C-0.119588 8.4485 -0.0615433 9.02894 0.344767 9.37721C0.576944 9.55134 5.74288 13.8466 11.141 16.3425C10.6766 19.3028 10.3284 21.4504 10.3864 25.9779C10.4445 29.9829 11.0249 32.9432 11.5473 35.5552C12.1278 38.5735 12.6501 41.1274 12.2438 44.552C12.1858 45.1905 11.8375 46.1192 11.5473 47.0479C10.7927 49.3117 9.98011 51.8076 11.141 53.4908C11.8375 54.4196 13.0565 54.942 14.7397 54.942C17.0615 54.942 18.4546 54.8839 19.6735 54.8259C21.647 54.7678 22.924 54.7098 26.4647 54.942C27.3353 55 28.148 55 28.9025 55C33.372 55 35.7518 54.0713 35.8679 52.2719C36.1 50.5306 33.3139 48.7893 29.3669 48.3249Z" fill="#004084"/>
<path d="M17.1776 46.2353C16.7713 45.9451 16.1328 46.0031 15.8426 46.4675C15.3782 47.164 15.146 47.9766 15.2621 48.7893C15.3782 49.6019 15.8426 50.3565 16.5391 50.8208C17.0615 51.2271 17.7 51.4013 18.3965 51.4013C18.5707 51.4013 18.7448 51.4013 18.9189 51.3432C19.4413 51.2852 19.7896 50.7628 19.7315 50.2404C19.6735 49.718 19.1511 49.3697 18.6287 49.4278C18.2804 49.4858 17.9902 49.4278 17.7 49.1956C17.4098 49.0214 17.2356 48.7312 17.2356 48.383C17.1776 48.0347 17.2356 47.7445 17.4678 47.4542C17.7 47.164 17.6419 46.5255 17.1776 46.2353Z" fill="#004084"/>
<path d="M25.0136 7.636C25.2458 7.636 25.478 7.57796 25.6521 7.40383L28.0319 5.31423C28.3802 4.90792 28.4383 4.32748 28.09 3.92117C27.7417 3.51486 27.1032 3.51486 26.755 3.86313L24.3752 5.95272C23.9688 6.30099 23.9688 6.93947 24.3171 7.28774C24.4912 7.51992 24.7234 7.636 25.0136 7.636Z" fill="#004084"/>
<path d="M28.1479 14.5432C27.6255 14.4852 27.1612 14.8915 27.1612 15.4719C27.1031 15.9943 27.5094 16.4587 28.0899 16.4587L31.2243 16.6328H31.2823C31.8047 16.6328 32.211 16.2265 32.211 15.7041C32.269 15.1817 31.8627 14.7174 31.2823 14.7174L28.1479 14.5432Z" fill="#004084"/>
<path d="M26.5227 11.0604C26.6388 11.4667 27.0451 11.6989 27.4515 11.6989C27.5675 11.6989 27.6836 11.6989 27.7417 11.6408L30.7019 10.596C31.2243 10.4219 31.4565 9.89951 31.2824 9.37711C31.1082 8.85472 30.5858 8.62254 30.0634 8.79667L27.1032 9.84147C26.5808 10.0156 26.3486 10.596 26.5227 11.0604Z" fill="#004084"/>
</svg>
