<svg width="30" height="31" viewBox="0 0 30 31" fill="none" xmlns="http://www.w3.org/2000/svg">
<path d="M14.9557 0.00285588C14.8648 0.0140737 14.7815 0.0584691 14.7222 0.127267C14.6629 0.196065 14.632 0.284259 14.6356 0.374416V7.16384C14.6349 7.21158 14.6439 7.25898 14.6619 7.30329C14.68 7.3476 14.7069 7.38792 14.7409 7.42192C14.7749 7.45592 14.8155 7.48292 14.8602 7.50135C14.905 7.51978 14.953 7.52927 15.0015 7.52927C15.0499 7.52927 15.0979 7.51978 15.1427 7.50135C15.1874 7.48292 15.228 7.45592 15.262 7.42192C15.296 7.38792 15.3229 7.3476 15.341 7.30329C15.359 7.25898 15.368 7.21158 15.3673 7.16384V0.374416C15.3694 0.322126 15.3599 0.270018 15.3394 0.221715C15.319 0.173412 15.2881 0.130074 15.2489 0.0947131C15.2098 0.0593523 15.1632 0.032818 15.1126 0.0169549C15.062 0.00109175 15.0084 -0.00371946 14.9557 0.00285588ZM0.298652 6.80354C0.227282 6.81668 0.161494 6.85043 0.109663 6.90051C0.0578311 6.95058 0.0222993 7.01471 0.00758863 7.08473C-0.00712201 7.15475 -0.000346167 7.2275 0.0270541 7.29372C0.0544544 7.35994 0.10124 7.41663 0.161457 7.45658L5.0319 10.8569C5.07169 10.8843 5.11656 10.9037 5.16395 10.914C5.21135 10.9243 5.26034 10.9252 5.30812 10.9169C5.3559 10.9085 5.40155 10.891 5.44244 10.8652C5.48334 10.8395 5.51869 10.8061 5.54647 10.7669C5.57425 10.7277 5.59392 10.6835 5.60435 10.6368C5.61479 10.5902 5.61578 10.5419 5.60728 10.4949C5.59878 10.4478 5.58095 10.4029 5.55481 10.3626C5.52867 10.3223 5.49472 10.2875 5.45492 10.2602L0.573044 6.87109C0.534147 6.84246 0.489854 6.82175 0.442744 6.81015C0.395635 6.79855 0.346653 6.7963 0.298652 6.80354ZM29.5785 6.80354C29.5244 6.81471 29.4736 6.83781 29.4299 6.87109L24.548 10.2602C24.5082 10.2875 24.4742 10.3223 24.4481 10.3626C24.422 10.4029 24.4041 10.4478 24.3956 10.4949C24.3871 10.5419 24.3881 10.5902 24.3986 10.6368C24.409 10.6835 24.4287 10.7277 24.4564 10.7669C24.4842 10.8061 24.5196 10.8395 24.5605 10.8652C24.6014 10.891 24.647 10.9085 24.6948 10.9169C24.7426 10.9252 24.7916 10.9243 24.839 10.914C24.8863 10.9037 24.9312 10.8843 24.971 10.8569L29.8414 7.45658C29.9097 7.41034 29.96 7.34265 29.9841 7.26459C30.0083 7.18652 30.0048 7.10271 29.9742 7.02686C29.9437 6.95101 29.8879 6.88761 29.816 6.84704C29.7441 6.80647 29.6604 6.79113 29.5785 6.80354ZM15.0015 11.1722C10.4653 11.1722 6.80401 14.7977 6.80401 19.2902V23.9629C6.80333 24.0106 6.81228 24.058 6.83036 24.1023C6.84844 24.1466 6.87528 24.187 6.90932 24.221C6.94336 24.255 6.98392 24.282 7.02865 24.3004C7.07338 24.3188 7.12138 24.3283 7.16987 24.3283C7.21835 24.3283 7.26635 24.3188 7.31108 24.3004C7.35581 24.282 7.39637 24.255 7.43042 24.221C7.46446 24.187 7.4913 24.1466 7.50937 24.1023C7.52745 24.058 7.53641 24.0106 7.53572 23.9629V19.2902C7.53572 15.182 10.8605 11.8928 15.0015 11.8928C19.1424 11.8928 22.4672 15.182 22.4672 19.2902V23.9629C22.4665 24.0106 22.4755 24.058 22.4935 24.1023C22.5116 24.1466 22.5385 24.187 22.5725 24.221C22.6065 24.255 22.6471 24.282 22.6918 24.3004C22.7366 24.3188 22.7846 24.3283 22.833 24.3283C22.8815 24.3283 22.9295 24.3188 22.9743 24.3004C23.019 24.282 23.0595 24.255 23.0936 24.221C23.1276 24.187 23.1545 24.1466 23.1725 24.1023C23.1906 24.058 23.1996 24.0106 23.1989 23.9629V19.2902C23.1989 14.7977 19.5376 11.1722 15.0015 11.1722ZM15.0015 14.1447C12.3961 14.1447 9.84518 16.1646 9.84518 18.761C9.8445 18.8088 9.85345 18.8562 9.87153 18.9005C9.88961 18.9448 9.91645 18.9851 9.95049 19.0191C9.98453 19.0531 10.0251 19.0801 10.0698 19.0985C10.1146 19.117 10.1626 19.1265 10.211 19.1265C10.2595 19.1265 10.3075 19.117 10.3523 19.0985C10.397 19.0801 10.4375 19.0531 10.4716 19.0191C10.5056 18.9851 10.5325 18.9448 10.5505 18.9005C10.5686 18.8562 10.5776 18.8088 10.5769 18.761C10.5769 16.6411 12.7862 14.8653 15.0015 14.8653C15.0499 14.8659 15.0981 14.8571 15.1431 14.8393C15.188 14.8215 15.229 14.7951 15.2635 14.7616C15.298 14.728 15.3255 14.6881 15.3442 14.644C15.3629 14.6 15.3725 14.5527 15.3725 14.505C15.3725 14.4572 15.3629 14.4099 15.3442 14.3659C15.3255 14.3218 15.298 14.2819 15.2635 14.2484C15.229 14.2149 15.188 14.1884 15.1431 14.1706C15.0981 14.1528 15.0499 14.144 15.0015 14.1447ZM4.08297 26.4512C3.99407 26.4622 3.91237 26.505 3.85336 26.5714C3.79436 26.6378 3.76215 26.7233 3.76284 26.8115V30.6397C3.76285 30.7353 3.8014 30.8269 3.87001 30.8945C3.93862 30.962 4.03167 31 4.1287 31H25.8742C25.9712 31 26.0643 30.962 26.1329 30.8945C26.2015 30.8269 26.2401 30.7353 26.2401 30.6397V26.8115C26.2401 26.7159 26.2015 26.6243 26.1329 26.5567C26.0643 26.4892 25.9712 26.4512 25.8742 26.4512H4.1287C4.11347 26.4503 4.0982 26.4503 4.08297 26.4512ZM4.49455 27.1718H25.5084V30.2794H4.49455V27.1718Z" fill="#F82727"/>
</svg>
