<?xml version="1.0" encoding="utf-8"?>
<!-- Generator: Adobe Illustrator 24.1.1, SVG Export Plug-In . SVG Version: 6.00 Build 0)  -->
<svg version="1.1" id="Layer_1" xmlns="http://www.w3.org/2000/svg" xmlns:xlink="http://www.w3.org/1999/xlink" x="0px" y="0px"
	 viewBox="0 0 56 56" style="enable-background:new 0 0 56 56;" xml:space="preserve">
<style type="text/css">
	.st0{fill:#004084;}
</style>
<path class="st0" d="M54.7,25.3c-0.3-1.6-0.6-3.3-0.9-5c-1-6.8-5.7-9.1-7.1-9.4c-1.3-0.5-2.6-1.2-3.7-2l-0.1-0.1
	c-0.4-0.2-0.7-0.5-1-0.7c-0.7-0.4-1.6-0.9-2.8-1.4c-1.6-0.7-3.2-1.5-4.6-2.5c-0.9-0.8-1.3-2-1.1-3.2c0.1-0.5-0.2-1-0.7-1.1
	C32.5,0,32.2,0,32,0.2c-0.2,0.1-0.3,0.3-0.4,0.6c-0.4,1.8,0.3,3.8,1.7,5c1.6,1.1,3.2,2,5,2.7c1,0.5,2,0.9,2.5,1.3
	c0.3,0.2,0.7,0.4,1.1,0.7c1.3,1,2.7,1.7,4.3,2.3c1,0.2,4.9,2.1,5.8,7.9c0.2,1.7,0.6,3.5,0.9,5.1c0.9,4.5,1.7,8.8,0.8,12.4
	c-0.1,0.5,0.2,1,0.7,1.1c0.1,0,0.1,0,0.2,0c0.4,0,0.8-0.3,0.9-0.7C56.4,34.6,55.6,30.1,54.7,25.3z"/>
<path class="st0" d="M26.5,31.9c-0.1-0.2-0.2-0.4-0.4-0.6c-0.2-0.1-0.4-0.2-0.7-0.1c-10.2,2.2-13.4-4.3-13.7-5
	c-0.9-2.7-0.9-3.5-0.9-3.8c0.1-0.2,0-0.5-0.1-0.7c-0.1-0.2-0.3-0.4-0.5-0.4c-0.5-0.1-1,0.2-1.1,0.6c-0.2,0.8,0,2.2,0.9,4.7l0,0.1
	c0.3,1,0.8,2.2,1.3,3.6c-0.1,0.9-0.4,5.4-1.8,7.4c-0.1,0.2-0.2,0.4-0.1,0.7c0,0.2,0.2,0.4,0.4,0.6c0.4,0.3,1,0.2,1.3-0.2
	c0.8-1.2,1.4-3,1.7-4.7c0.6,1.9,1.1,3.8,1.4,5.7c0.4,4.4-0.3,13.7-0.4,14.1c0,0.2,0.1,0.5,0.2,0.7c0.2,0.2,0.4,0.3,0.7,0.3
	c0.5,0,0.9-0.4,0.9-0.8c0-0.4,0.7-9.8,0.4-14.4c-0.2-2.2-1.3-5.5-2.5-8.9c2.3,1.8,5.2,2.7,8.1,2.6c1.4,0,2.9-0.2,4.3-0.5
	C26.3,32.9,26.6,32.4,26.5,31.9z"/>
<path class="st0" d="M14,10.4c0.4-0.2,0.7-0.5,1.1-0.7c0.6-0.3,1.5-0.8,2.5-1.3c1.7-0.7,3.4-1.7,5-2.7c1.4-1.2,2.1-3.1,1.7-5
	c0-0.2-0.2-0.4-0.4-0.6C23.7,0,23.5,0,23.2,0c-0.2,0-0.4,0.2-0.6,0.4c-0.1,0.2-0.2,0.4-0.1,0.7c0.2,1.2-0.2,2.4-1,3.2
	c-1.5,1-3,1.8-4.7,2.5c-1.1,0.5-2.1,1-2.7,1.4c-0.3,0.2-0.7,0.5-1.1,0.7c-1.1,0.8-2.4,1.5-3.6,2c-1.6,0.3-6.3,2.7-7.2,9.4
	c-0.2,1.7-0.6,3.4-0.9,5c-0.9,4.7-1.7,9.2-0.8,13.2c0.1,0.4,0.5,0.7,0.9,0.7c0.1,0,0.1,0,0.2,0c0.5-0.1,0.8-0.6,0.7-1.1
	C1.3,34.5,2.1,30.2,3,25.7c0.3-1.7,0.6-3.4,0.9-5.1c0.8-5.8,4.8-7.7,5.8-7.9C11.2,12.2,12.7,11.4,14,10.4z"/>
<path class="st0" d="M45.9,26.8c0.9-2.6,1.1-4,0.9-4.8c-0.1-0.2-0.2-0.4-0.4-0.5c-0.2-0.1-0.5-0.1-0.7-0.1c-0.5,0.1-0.8,0.6-0.6,1.1
	c0.1,0.2,0,1-0.9,3.7c-0.1,0.3-3.4,7.3-13.7,5c-0.2-0.1-0.5,0-0.7,0.1c-0.2,0.1-0.3,0.3-0.4,0.6c-0.1,0.5,0.2,1,0.7,1.1
	c1.4,0.3,2.8,0.5,4.3,0.5c3,0.1,5.8-0.8,8.1-2.6c-1.2,3.3-2.3,6.7-2.5,8.9c-0.4,4.5,0.3,13.4,0.4,14.4c0,0.5,0.4,0.8,1,0.8
	c0.2,0,0.5-0.1,0.6-0.3c0.2-0.2,0.2-0.4,0.2-0.7c0-0.1-0.7-9.7-0.4-14.1c0.3-2,0.8-3.9,1.5-5.8c0.3,1.7,0.8,3.5,1.7,4.7
	c0.1,0.2,0.3,0.3,0.6,0.4c0.2,0,0.5,0,0.7-0.1c0.2-0.1,0.3-0.3,0.4-0.6c0-0.2,0-0.5-0.1-0.7c-1.4-2-1.7-6.5-1.8-7.4
	c0.5-1.4,0.9-2.5,1.2-3.5L45.9,26.8z"/>
<path class="st0" d="M28.5,49.4c-0.3,0.2-0.7,0.2-1,0c-0.4-0.3-1-0.1-1.2,0.3c-0.1,0.2-0.2,0.4-0.1,0.7s0.2,0.4,0.4,0.6
	c0.4,0.3,1,0.4,1.4,0.4c0.5,0,1-0.1,1.5-0.4c0.2-0.1,0.3-0.3,0.4-0.6c0.1-0.2,0-0.5-0.1-0.7C29.4,49.3,28.9,49.2,28.5,49.4z"/>
<path class="st0" d="M25.6,17.5l1.8-0.1l0-0.5c0-0.7,0-1.1,0-1.2l0-0.4L25.7,15l-0.1,0.5c0,0.1-0.1,0.7,0,1.6L25.6,17.5z"/>
<path class="st0" d="M26.2,19.8c0.3,0.9,0.8,1.7,1.4,2.4l0.3,0.4l1.4-1.2L29,21.1c-0.5-0.6-0.9-1.2-1.1-1.9l-0.2-0.4L26,19.4
	L26.2,19.8z"/>
<path class="st0" d="M29.7,24.1c0.7,0.5,1.5,0.9,2.4,1.3l0.4,0.2l0.7-1.7l-0.4-0.2c-0.8-0.3-1.5-0.7-2.1-1.1l-0.4-0.3l-1,1.5
	L29.7,24.1z"/>
<path class="st0" d="M36.6,26.4l0.3-1.8l-0.4-0.1c-0.4-0.1-0.9-0.1-1.3-0.2l-0.4-0.1L34.3,26l0.4,0.1c0.4,0.1,0.9,0.2,1.4,0.2
	L36.6,26.4z"/>
</svg>
